<svg width="160" height="40" viewBox="0 0 160 40" fill="none" xmlns="http://www.w3.org/2000/svg">
<path d="M1.5963 15.2429C-1.49918 20.9451 0.269663 29.2791 3.80735 34.5426C5.5762 37.1743 7.34515 39.3674 9.99841 39.3674C11.325 39.3674 12.2094 38.929 12.6516 38.4903C13.536 38.0517 14.4204 37.613 16.1892 37.613C17.5158 37.613 18.4003 38.0517 19.2847 38.4903C20.1692 38.929 21.0536 39.3674 22.3803 39.3674C25.0335 39.3674 26.8025 36.7357 28.5713 34.5426C30.3402 32.3495 30.7823 30.1563 31.2245 29.279V28.8405C30.7823 28.8405 26.3603 26.6473 26.3603 21.3838C26.3603 16.9975 29.4556 14.8045 30.34 14.3659C30.34 14.3659 30.34 14.3657 30.34 13.9271C28.129 10.8567 24.5914 9.97961 23.2647 9.97961H22.8224C21.0535 9.97961 19.7269 10.4182 18.4003 11.2954C17.5158 11.7341 16.6314 11.734 16.1892 11.734C15.747 11.734 14.8626 11.2954 13.9782 11.2954C12.6515 10.8568 11.325 10.4181 9.99841 10.4181C6.46073 10.4181 3.36514 12.6112 1.5963 15.2429Z" fill="#FFFFFF"/>
<path d="M23.074 1.4082C21.3479 1.4082 18.7588 2.66035 17.4643 4.33014C16.1697 5.58249 15.3066 7.66984 15.3066 10.1745C15.3066 10.1745 15.3065 10.5919 15.7381 10.5919H16.1695C17.8956 10.5919 20.0533 9.75708 21.3478 8.08729C22.6424 6.00004 23.5056 3.9129 23.074 1.4082C23.5056 1.82565 23.074 1.4082 23.074 1.4082Z" fill="#FFFFFF"/>
<path d="M45.918 0.76982H49.6489C50.6276 0.76982 51.4941 0.9791 52.2483 1.39766C53.0116 1.81622 53.6042 2.39755 54.0262 3.14165C54.4483 3.87646 54.6593 4.71357 54.6593 5.65301C54.6593 6.59244 54.4483 7.43421 54.0262 8.17831C53.6042 8.91311 53.0116 9.48979 52.2483 9.90835C51.4941 10.3269 50.6276 10.5362 49.6489 10.5362H45.918V0.76982ZM49.595 9.8944C50.466 9.8944 51.2337 9.71768 51.8982 9.36423C52.5626 9.00148 53.0744 8.49921 53.4336 7.85742C53.7928 7.21563 53.9724 6.48082 53.9724 5.65301C53.9724 4.82519 53.7928 4.09039 53.4336 3.4486C53.0744 2.80681 52.5626 2.30919 51.8982 1.95574C51.2337 1.59299 50.466 1.41161 49.595 1.41161H46.6049V9.8944H49.595Z" fill="#FFFFFF"/>
<path d="M59.5777 10.592C58.9133 10.592 58.3117 10.4339 57.7729 10.1176C57.2431 9.80139 56.8256 9.36423 56.5203 8.80615C56.215 8.23877 56.0624 7.60163 56.0624 6.89473C56.0624 6.18783 56.215 5.55534 56.5203 4.99726C56.8256 4.42988 57.2431 3.98807 57.7729 3.67183C58.3117 3.35558 58.9133 3.19746 59.5777 3.19746C60.2422 3.19746 60.8393 3.35558 61.3691 3.67183C61.9079 3.98807 62.3299 4.42988 62.6352 4.99726C62.9405 5.55534 63.0931 6.18783 63.0931 6.89473C63.0931 7.60163 62.9405 8.23877 62.6352 8.80615C62.3299 9.36423 61.9079 9.80139 61.3691 10.1176C60.8393 10.4339 60.2422 10.592 59.5777 10.592ZM59.5777 9.96416C60.1165 9.96416 60.5969 9.83394 61.0189 9.57351C61.4499 9.31307 61.7866 8.95032 62.0291 8.48525C62.2805 8.02019 62.4062 7.49001 62.4062 6.89473C62.4062 6.29945 62.2805 5.76927 62.0291 5.30421C61.7866 4.83914 61.4499 4.47639 61.0189 4.21595C60.5969 3.95552 60.1165 3.8253 59.5777 3.8253C59.039 3.8253 58.5541 3.95552 58.1231 4.21595C57.7011 4.47639 57.3644 4.83914 57.1129 5.30421C56.8705 5.76927 56.7493 6.29945 56.7493 6.89473C56.7493 7.49001 56.8705 8.02019 57.1129 8.48525C57.3644 8.95032 57.7011 9.31307 58.1231 9.57351C58.5541 9.83394 59.039 9.96416 59.5777 9.96416Z" fill="#FFFFFF"/>
<path d="M75.0329 3.25327L72.366 10.5362H71.733L69.3625 4.21595L66.9785 10.5362H66.3589L63.6921 3.25327H64.3386L66.6822 9.75488L69.0796 3.25327H69.6588L72.0428 9.74093L74.4133 3.25327H75.0329Z" fill="#FFFFFF"/>
<path d="M80.0339 3.19746C80.9139 3.19746 81.6098 3.46255 82.1216 3.99272C82.6334 4.5229 82.8893 5.2856 82.8893 6.28084V10.5362H82.2159V6.33665C82.2159 5.51814 82.0139 4.89495 81.6098 4.46709C81.2147 4.03923 80.658 3.8253 79.9397 3.8253C79.1136 3.8253 78.4626 4.08109 77.9867 4.59266C77.5108 5.10423 77.2728 5.79253 77.2728 6.65755V10.5362H76.5994V3.25327H77.2459V4.82984C77.4883 4.31827 77.8475 3.91831 78.3234 3.62997C78.8083 3.34163 79.3785 3.19746 80.0339 3.19746Z" fill="#FFFFFF"/>
<path d="M85.6619 0.183838H86.3354V10.5362H85.6619V0.183838Z" fill="#FFFFFF"/>
<path d="M91.9215 10.592C91.257 10.592 90.6554 10.4339 90.1167 10.1176C89.5869 9.80139 89.1694 9.36423 88.8641 8.80615C88.5588 8.23877 88.4061 7.60163 88.4061 6.89473C88.4061 6.18783 88.5588 5.55534 88.8641 4.99726C89.1694 4.42988 89.5869 3.98807 90.1167 3.67183C90.6554 3.35558 91.257 3.19746 91.9215 3.19746C92.586 3.19746 93.1831 3.35558 93.7129 3.67183C94.2516 3.98807 94.6736 4.42988 94.9789 4.99726C95.2842 5.55534 95.4369 6.18783 95.4369 6.89473C95.4369 7.60163 95.2842 8.23877 94.9789 8.80615C94.6736 9.36423 94.2516 9.80139 93.7129 10.1176C93.1831 10.4339 92.586 10.592 91.9215 10.592ZM91.9215 9.96416C92.4603 9.96416 92.9406 9.83394 93.3627 9.57351C93.7937 9.31307 94.1304 8.95032 94.3728 8.48525C94.6243 8.02019 94.75 7.49001 94.75 6.89473C94.75 6.29945 94.6243 5.76927 94.3728 5.30421C94.1304 4.83914 93.7937 4.47639 93.3627 4.21595C92.9406 3.95552 92.4603 3.8253 91.9215 3.8253C91.3828 3.8253 90.8979 3.95552 90.4669 4.21595C90.0448 4.47639 89.7081 4.83914 89.4567 5.30421C89.2143 5.76927 89.093 6.29945 89.093 6.89473C89.093 7.49001 89.2143 8.02019 89.4567 8.48525C89.7081 8.95032 90.0448 9.31307 90.4669 9.57351C90.8979 9.83394 91.3828 9.96416 91.9215 9.96416Z" fill="#FFFFFF"/>
<path d="M99.8704 3.19746C100.741 3.19746 101.41 3.42999 101.877 3.89506C102.344 4.35082 102.578 5.02517 102.578 5.91809V10.5362H101.931V9.23866C101.707 9.66652 101.379 10.0014 100.948 10.2432C100.517 10.4757 100.001 10.592 99.399 10.592C98.6178 10.592 97.9982 10.4013 97.5402 10.02C97.0913 9.63862 96.8668 9.13635 96.8668 8.51316C96.8668 7.90857 97.0733 7.42025 97.4864 7.0482C97.9084 6.66685 98.5774 6.47617 99.4932 6.47617H101.904V5.89019C101.904 5.21119 101.725 4.69497 101.365 4.34152C101.015 3.98807 100.499 3.81135 99.8165 3.81135C99.3496 3.81135 98.9006 3.89506 98.4696 4.06248C98.0476 4.22991 97.6884 4.45314 97.3921 4.73218L97.0554 4.22991C97.4056 3.90436 97.8276 3.65323 98.3214 3.4765C98.8153 3.29047 99.3316 3.19746 99.8704 3.19746ZM99.4932 10.02C100.077 10.02 100.571 9.88045 100.975 9.60141C101.388 9.32237 101.698 8.91776 101.904 8.38759V7.0203H99.5067C98.8153 7.0203 98.3125 7.15052 97.9982 7.41095C97.6929 7.67139 97.5402 8.02949 97.5402 8.48525C97.5402 8.95962 97.7108 9.33632 98.0521 9.61536C98.3933 9.8851 98.8737 10.02 99.4932 10.02Z" fill="#FFFFFF"/>
<path d="M111.615 0.183838V10.5362H110.955V8.8201C110.677 9.38748 110.286 9.82464 109.783 10.1316C109.28 10.4385 108.71 10.592 108.073 10.592C107.417 10.592 106.825 10.4339 106.295 10.1176C105.765 9.80139 105.347 9.36423 105.042 8.80615C104.746 8.24807 104.598 7.61093 104.598 6.89473C104.598 6.17853 104.746 5.54139 105.042 4.98331C105.347 4.41593 105.765 3.97877 106.295 3.67183C106.825 3.35558 107.417 3.19746 108.073 3.19746C108.701 3.19746 109.262 3.35093 109.756 3.65788C110.259 3.96482 110.654 4.39268 110.942 4.94146V0.183838H111.615ZM108.113 9.96416C108.652 9.96416 109.132 9.83394 109.554 9.57351C109.985 9.31307 110.322 8.95032 110.564 8.48525C110.816 8.02019 110.942 7.49001 110.942 6.89473C110.942 6.29945 110.816 5.76927 110.564 5.30421C110.322 4.83914 109.985 4.47639 109.554 4.21595C109.132 3.95552 108.652 3.8253 108.113 3.8253C107.574 3.8253 107.089 3.95552 106.658 4.21595C106.236 4.47639 105.9 4.83914 105.648 5.30421C105.406 5.76927 105.285 6.29945 105.285 6.89473C105.285 7.49001 105.406 8.02019 105.648 8.48525C105.9 8.95032 106.236 9.31307 106.658 9.57351C107.089 9.83394 107.574 9.96416 108.113 9.96416Z" fill="#FFFFFF"/>
<path d="M120.661 10.592C119.997 10.592 119.395 10.4339 118.856 10.1176C118.327 9.80139 117.909 9.36423 117.604 8.80615C117.299 8.23877 117.146 7.60163 117.146 6.89473C117.146 6.18783 117.299 5.55534 117.604 4.99726C117.909 4.42988 118.327 3.98807 118.856 3.67183C119.395 3.35558 119.997 3.19746 120.661 3.19746C121.326 3.19746 121.923 3.35558 122.453 3.67183C122.991 3.98807 123.413 4.42988 123.719 4.99726C124.024 5.55534 124.177 6.18783 124.177 6.89473C124.177 7.60163 124.024 8.23877 123.719 8.80615C123.413 9.36423 122.991 9.80139 122.453 10.1176C121.923 10.4339 121.326 10.592 120.661 10.592ZM120.661 9.96416C121.2 9.96416 121.68 9.83394 122.102 9.57351C122.533 9.31307 122.87 8.95032 123.113 8.48525C123.364 8.02019 123.49 7.49001 123.49 6.89473C123.49 6.29945 123.364 5.76927 123.113 5.30421C122.87 4.83914 122.533 4.47639 122.102 4.21595C121.68 3.95552 121.2 3.8253 120.661 3.8253C120.123 3.8253 119.638 3.95552 119.207 4.21595C118.785 4.47639 118.448 4.83914 118.196 5.30421C117.954 5.76927 117.833 6.29945 117.833 6.89473C117.833 7.49001 117.954 8.02019 118.196 8.48525C118.448 8.95032 118.785 9.31307 119.207 9.57351C119.638 9.83394 120.123 9.96416 120.661 9.96416Z" fill="#FFFFFF"/>
<path d="M129.7 3.19746C130.58 3.19746 131.276 3.46255 131.788 3.99272C132.3 4.5229 132.556 5.2856 132.556 6.28084V10.5362H131.882V6.33665C131.882 5.51814 131.68 4.89495 131.276 4.46709C130.881 4.03923 130.325 3.8253 129.606 3.8253C128.78 3.8253 128.129 4.08109 127.653 4.59266C127.177 5.10423 126.939 5.79253 126.939 6.65755V10.5362H126.266V3.25327H126.912V4.82984C127.155 4.31827 127.514 3.91831 127.99 3.62997C128.475 3.34163 129.045 3.19746 129.7 3.19746Z" fill="#FFFFFF"/>
<path d="M142.276 10.0758C142.106 10.2432 141.89 10.3734 141.63 10.4664C141.378 10.5501 141.113 10.592 140.835 10.592C140.224 10.592 139.753 10.4199 139.421 10.0758C139.089 9.72233 138.922 9.23401 138.922 8.61082V3.8532H137.629V3.25327H138.922V1.66275H139.596V3.25327H141.832V3.8532H139.596V8.54106C139.596 9.01543 139.704 9.37818 139.919 9.62931C140.144 9.87115 140.471 9.99207 140.902 9.99207C141.342 9.99207 141.706 9.8572 141.993 9.58746L142.276 10.0758Z" fill="#FFFFFF"/>
<path d="M147.589 3.19746C148.469 3.19746 149.165 3.46255 149.677 3.99272C150.188 4.5229 150.444 5.2856 150.444 6.28084V10.5362H149.771V6.33665C149.771 5.51814 149.569 4.89495 149.165 4.46709C148.77 4.03923 148.213 3.8253 147.495 3.8253C146.668 3.8253 146.017 4.08109 145.542 4.59266C145.066 5.10423 144.828 5.79253 144.828 6.65755V10.5362H144.154V0.183838H144.828V4.77403C145.07 4.27176 145.429 3.88576 145.905 3.61602C146.381 3.33698 146.942 3.19746 147.589 3.19746Z" fill="#FFFFFF"/>
<path d="M159.17 7.06215H153.122C153.14 7.62953 153.279 8.13646 153.54 8.58292C153.8 9.02008 154.15 9.35958 154.59 9.60141C155.039 9.84325 155.542 9.96416 156.099 9.96416C156.557 9.96416 156.979 9.88045 157.365 9.71303C157.76 9.5363 158.088 9.28052 158.348 8.94567L158.739 9.40608C158.434 9.78744 158.047 10.0804 157.58 10.2851C157.123 10.4897 156.624 10.592 156.085 10.592C155.385 10.592 154.761 10.4339 154.213 10.1176C153.666 9.80139 153.235 9.36423 152.92 8.80615C152.615 8.24807 152.462 7.61093 152.462 6.89473C152.462 6.18783 152.606 5.55534 152.893 4.99726C153.19 4.42988 153.594 3.98807 154.105 3.67183C154.617 3.35558 155.192 3.19746 155.83 3.19746C156.467 3.19746 157.037 3.35558 157.54 3.67183C158.052 3.97877 158.451 4.41128 158.739 4.96936C159.035 5.52744 159.183 6.15993 159.183 6.86683L159.17 7.06215ZM155.83 3.81135C155.336 3.81135 154.891 3.92761 154.496 4.16015C154.101 4.38338 153.782 4.70427 153.54 5.12283C153.306 5.53209 153.172 5.99715 153.136 6.51803H158.523C158.496 5.99715 158.362 5.53209 158.119 5.12283C157.877 4.71357 157.558 4.39268 157.163 4.16015C156.768 3.92761 156.323 3.81135 155.83 3.81135Z" fill="#FFFFFF"/>
<path d="M55.5989 30.5577H47.5347L45.9449 34.2881H42.8574L50.1152 18.1692H53.0644L60.3453 34.2881H57.2117L55.5989 30.5577ZM54.6081 28.209L51.5668 21.1627L48.5485 28.209H54.6081Z" fill="#FFFFFF"/>
<path d="M68.94 21.8535C70.1381 21.8535 71.2056 22.1145 72.1426 22.6365C73.095 23.1584 73.8399 23.8953 74.3775 24.847C74.9152 25.7988 75.184 26.8964 75.184 28.1399C75.184 29.3833 74.9152 30.4886 74.3775 31.4558C73.8399 32.4075 73.095 33.1444 72.1426 33.6663C71.2056 34.1883 70.1381 34.4493 68.94 34.4493C67.281 34.4493 65.9677 33.8966 65 32.7913V38.7553H62.1199V21.9917H64.8618V23.6036C65.3379 23.0202 65.9216 22.5827 66.6129 22.2911C67.3194 21.9994 68.0951 21.8535 68.94 21.8535ZM68.6174 31.9854C69.6773 31.9854 70.5451 31.6323 71.221 30.9261C71.9122 30.22 72.2578 29.2912 72.2578 28.1399C72.2578 26.9885 71.9122 26.0598 71.221 25.3536C70.5451 24.6475 69.6773 24.2944 68.6174 24.2944C67.9262 24.2944 67.3041 24.4556 66.7511 24.778C66.1981 25.085 65.7604 25.5302 65.4378 26.1135C65.1152 26.6969 64.9539 27.3723 64.9539 28.1399C64.9539 28.9074 65.1152 29.5829 65.4378 30.1663C65.7604 30.7496 66.1981 31.2025 66.7511 31.5248C67.3041 31.8319 67.9262 31.9854 68.6174 31.9854Z" fill="#FFFFFF"/>
<path d="M84.7354 21.8535C85.9335 21.8535 87.0011 22.1145 87.938 22.6365C88.8904 23.1584 89.6354 23.8953 90.173 24.847C90.7106 25.7988 90.9794 26.8964 90.9794 28.1399C90.9794 29.3833 90.7106 30.4886 90.173 31.4558C89.6354 32.4075 88.8904 33.1444 87.938 33.6663C87.0011 34.1883 85.9335 34.4493 84.7354 34.4493C83.0765 34.4493 81.7631 33.8966 80.7954 32.7913V38.7553H77.9154V21.9917H80.6572V23.6036C81.1334 23.0202 81.7171 22.5827 82.4083 22.2911C83.1149 21.9994 83.8906 21.8535 84.7354 21.8535ZM84.4128 31.9854C85.4727 31.9854 86.3406 31.6323 87.0164 30.9261C87.7076 30.22 88.0532 29.2912 88.0532 28.1399C88.0532 26.9885 87.7076 26.0598 87.0164 25.3536C86.3406 24.6475 85.4727 24.2944 84.4128 24.2944C83.7216 24.2944 83.0995 24.4556 82.5465 24.778C81.9936 25.085 81.5558 25.5302 81.2332 26.1135C80.9106 26.6969 80.7494 27.3723 80.7494 28.1399C80.7494 28.9074 80.9106 29.5829 81.2332 30.1663C81.5558 30.7496 81.9936 31.2025 82.5465 31.5248C83.0995 31.8319 83.7216 31.9854 84.4128 31.9854Z" fill="#FFFFFF"/>
<path d="M105.355 34.5183C104.111 34.5183 102.905 34.3418 101.737 33.9887C100.585 33.6356 99.6714 33.1674 98.9956 32.5841L100.032 30.2584C100.693 30.7803 101.499 31.2101 102.452 31.5479C103.419 31.8702 104.387 32.0314 105.355 32.0314C106.553 32.0314 107.444 31.8395 108.027 31.4558C108.627 31.072 108.926 30.5654 108.926 29.936C108.926 29.4754 108.757 29.0993 108.419 28.8077C108.097 28.5006 107.682 28.2627 107.175 28.0938C106.668 27.925 105.977 27.7331 105.101 27.5182C103.872 27.2265 102.874 26.9348 102.106 26.6431C101.353 26.3515 100.701 25.8986 100.148 25.2845C99.61 24.6551 99.3412 23.8108 99.3412 22.7516C99.3412 21.8612 99.5793 21.0553 100.055 20.3338C100.547 19.5969 101.277 19.0136 102.244 18.5837C103.227 18.1539 104.425 17.939 105.839 17.939C106.822 17.939 107.789 18.0618 108.742 18.3074C109.694 18.553 110.516 18.9061 111.207 19.3666L110.262 21.6924C109.556 21.2779 108.819 20.9632 108.051 20.7482C107.283 20.5333 106.538 20.4259 105.816 20.4259C104.633 20.4259 103.75 20.6254 103.166 21.0246C102.598 21.4237 102.313 21.9533 102.313 22.6134C102.313 23.074 102.475 23.4501 102.797 23.7417C103.135 24.0334 103.558 24.2637 104.065 24.4326C104.571 24.6014 105.263 24.7933 106.138 25.0082C107.336 25.2845 108.319 25.5762 109.087 25.8832C109.855 26.1749 110.508 26.6278 111.046 27.2418C111.599 27.8559 111.875 28.6849 111.875 29.7287C111.875 30.6191 111.63 31.4251 111.138 32.1466C110.662 32.8681 109.932 33.4438 108.949 33.8736C107.966 34.3034 106.768 34.5183 105.355 34.5183Z" fill="#FFFFFF"/>
<path d="M121.965 33.6203C121.627 33.8966 121.212 34.1039 120.721 34.242C120.245 34.3802 119.738 34.4493 119.2 34.4493C117.848 34.4493 116.804 34.0962 116.067 33.39C115.329 32.6839 114.961 31.6553 114.961 30.3044V24.3865H112.933V22.0838H114.961V19.2745H117.841V22.0838H121.135V24.3865H117.841V30.2353C117.841 30.834 117.987 31.2946 118.278 31.6169C118.57 31.924 118.993 32.0775 119.546 32.0775C120.191 32.0775 120.728 31.9086 121.159 31.5709L121.965 33.6203Z" fill="#FFFFFF"/>
<path d="M129.459 34.4493C128.215 34.4493 127.093 34.1806 126.095 33.6433C125.097 33.106 124.313 32.3615 123.745 31.4097C123.192 30.4426 122.915 29.3526 122.915 28.1399C122.915 26.9271 123.192 25.8449 123.745 24.8931C124.313 23.9413 125.097 23.1968 126.095 22.6595C127.093 22.1222 128.215 21.8535 129.459 21.8535C130.718 21.8535 131.847 22.1222 132.846 22.6595C133.844 23.1968 134.62 23.9413 135.173 24.8931C135.741 25.8449 136.025 26.9271 136.025 28.1399C136.025 29.3526 135.741 30.4426 135.173 31.4097C134.62 32.3615 133.844 33.106 132.846 33.6433C131.847 34.1806 130.718 34.4493 129.459 34.4493ZM129.459 31.9854C130.519 31.9854 131.394 31.6323 132.086 30.9261C132.777 30.22 133.122 29.2912 133.122 28.1399C133.122 26.9885 132.777 26.0598 132.086 25.3536C131.394 24.6475 130.519 24.2944 129.459 24.2944C128.399 24.2944 127.523 24.6475 126.832 25.3536C126.156 26.0598 125.818 26.9885 125.818 28.1399C125.818 29.2912 126.156 30.22 126.832 30.9261C127.523 31.6323 128.399 31.9854 129.459 31.9854Z" fill="#FFFFFF"/>
<path d="M141.521 23.7878C142.351 22.4983 143.81 21.8535 145.899 21.8535V24.5937C145.653 24.5477 145.431 24.5247 145.231 24.5247C144.11 24.5247 143.234 24.8547 142.604 25.5148C141.975 26.1596 141.66 27.096 141.66 28.3241V34.2881H138.78V21.9917H141.521V23.7878Z" fill="#FFFFFF"/>
<path d="M159.796 28.209C159.796 28.4085 159.781 28.6925 159.75 29.061H150.096C150.265 29.9667 150.703 30.6882 151.409 31.2255C152.131 31.7474 153.022 32.0084 154.082 32.0084C155.434 32.0084 156.547 31.5632 157.423 30.6728L158.967 32.4459C158.414 33.106 157.715 33.6049 156.87 33.9427C156.025 34.2804 155.073 34.4493 154.013 34.4493C152.661 34.4493 151.471 34.1806 150.442 33.6433C149.413 33.106 148.614 32.3615 148.045 31.4097C147.493 30.4426 147.216 29.3526 147.216 28.1399C147.216 26.9425 147.485 25.8679 148.022 24.9161C148.575 23.949 149.336 23.1968 150.303 22.6595C151.271 22.1222 152.362 21.8535 153.575 21.8535C154.773 21.8535 155.841 22.1222 156.778 22.6595C157.73 23.1814 158.468 23.926 158.99 24.8931C159.527 25.8449 159.796 26.9502 159.796 28.209ZM153.575 24.1562C152.654 24.1562 151.87 24.4326 151.225 24.9852C150.595 25.5225 150.211 26.244 150.073 27.1497H157.054C156.931 26.2594 156.555 25.5378 155.925 24.9852C155.296 24.4326 154.512 24.1562 153.575 24.1562Z" fill="#FFFFFF"/>
</svg>
