<svg width="107" height="27" viewBox="0 0 107 27" fill="none" xmlns="http://www.w3.org/2000/svg">
<path d="M1.39623 10.1617C-0.667423 13.9631 0.511807 19.5191 2.87027 23.0281C4.04949 24.7827 5.2288 26.2447 6.99764 26.2447C7.88206 26.2447 8.47161 25.9524 8.76641 25.66C9.35603 25.3676 9.94561 25.0751 11.1248 25.0751C12.0093 25.0751 12.5989 25.3676 13.1885 25.66C13.7781 25.9524 14.3678 26.2447 15.2522 26.2447C17.0211 26.2447 18.2004 24.4902 19.3796 23.0281C20.5588 21.5661 20.8535 20.1039 21.1484 19.5191V19.2268C20.8535 19.2268 17.9055 17.7646 17.9055 14.2556C17.9055 11.3314 19.9691 9.86943 20.5587 9.57701C20.5587 9.57701 20.5587 9.5769 20.5587 9.28448C19.0847 7.23756 16.7263 6.65283 15.8419 6.65283H15.5469C14.3677 6.65283 13.4833 6.94521 12.5989 7.53005C12.0093 7.82247 11.4196 7.8224 11.1248 7.8224C10.83 7.8224 10.2404 7.53005 9.6508 7.53005C8.76638 7.23763 7.88206 6.94518 6.99764 6.94518C4.63918 6.94518 2.57546 8.40719 1.39623 10.1617Z" fill="#000308"/>
<path d="M15.7154 0.938477C14.5646 0.938477 12.8386 1.77324 11.9755 2.88644C11.1125 3.72133 10.5371 5.1129 10.5371 6.78269C10.5371 6.78269 10.537 7.06093 10.8247 7.06093H11.1123C12.2631 7.06093 13.7015 6.5044 14.5646 5.3912C15.4276 3.9997 16.0031 2.60827 15.7154 0.938477C16.0031 1.21678 15.7154 0.938477 15.7154 0.938477Z" fill="#000308"/>
<path d="M30.9453 0.512725H33.4326C34.0851 0.512725 34.6627 0.652245 35.1656 0.931284C35.6744 1.21032 36.0695 1.59788 36.3508 2.09395C36.6322 2.58382 36.7729 3.14189 36.7729 3.76818C36.7729 4.39447 36.6322 4.95565 36.3508 5.45172C36.0695 5.94159 35.6744 6.32604 35.1656 6.60508C34.6627 6.88412 34.0851 7.02364 33.4326 7.02364H30.9453V0.512725ZM33.3967 6.59578C33.9773 6.59578 34.4891 6.47796 34.9321 6.24233C35.3751 6.0005 35.7163 5.66565 35.9557 5.23779C36.1952 4.80993 36.3149 4.32006 36.3149 3.76818C36.3149 3.21631 36.1952 2.72644 35.9557 2.29858C35.7163 1.87072 35.3751 1.53897 34.9321 1.30334C34.4891 1.0615 33.9773 0.940585 33.3967 0.940585H31.4033V6.59578H33.3967Z" fill="#000308"/>
<path d="M40.0518 7.06085C39.6089 7.06085 39.2078 6.95543 38.8486 6.7446C38.4954 6.53377 38.2171 6.24233 38.0135 5.87028C37.81 5.49202 37.7082 5.06727 37.7082 4.596C37.7082 4.12473 37.81 3.70307 38.0135 3.33102C38.2171 2.95277 38.4954 2.65823 38.8486 2.4474C39.2078 2.23657 39.6089 2.13115 40.0518 2.13115C40.4948 2.13115 40.8929 2.23657 41.2461 2.4474C41.6052 2.65823 41.8866 2.95277 42.0901 3.33102C42.2937 3.70307 42.3954 4.12473 42.3954 4.596C42.3954 5.06727 42.2937 5.49202 42.0901 5.87028C41.8866 6.24233 41.6052 6.53377 41.2461 6.7446C40.8929 6.95543 40.4948 7.06085 40.0518 7.06085ZM40.0518 6.64229C40.411 6.64229 40.7313 6.55547 41.0126 6.38185C41.2999 6.20823 41.5244 5.96639 41.6861 5.65635C41.8537 5.3463 41.9375 4.99285 41.9375 4.596C41.9375 4.19914 41.8537 3.84569 41.6861 3.53565C41.5244 3.22561 41.2999 2.98377 41.0126 2.81015C40.7313 2.63652 40.411 2.54971 40.0518 2.54971C39.6927 2.54971 39.3694 2.63652 39.0821 2.81015C38.8007 2.98377 38.5762 3.22561 38.4086 3.53565C38.247 3.84569 38.1662 4.19914 38.1662 4.596C38.1662 4.99285 38.247 5.3463 38.4086 5.65635C38.5762 5.96639 38.8007 6.20823 39.0821 6.38185C39.3694 6.55547 39.6927 6.64229 40.0518 6.64229Z" fill="#000308"/>
<path d="M50.3553 2.16836L48.5774 7.02364H48.1553L46.575 2.81015L44.9857 7.02364H44.5726L42.7947 2.16836H43.2257L44.7881 6.50277L46.3864 2.16836H46.7725L48.3619 6.49347L49.9422 2.16836H50.3553Z" fill="#000308"/>
<path d="M53.6893 2.13115C54.2759 2.13115 54.7399 2.30788 55.0811 2.66133C55.4223 3.01478 55.5929 3.52325 55.5929 4.18674V7.02364H55.1439V4.22395C55.1439 3.67827 55.0092 3.26281 54.7399 2.97757C54.4765 2.69233 54.1053 2.54971 53.6264 2.54971C53.0757 2.54971 52.6417 2.72024 52.3244 3.06128C52.0072 3.40233 51.8485 3.8612 51.8485 4.43788V7.02364H51.3996V2.16836H51.8306V3.21941C51.9922 2.87836 52.2317 2.61172 52.5489 2.41949C52.8722 2.22727 53.2523 2.13115 53.6893 2.13115Z" fill="#000308"/>
<path d="M57.4413 0.12207H57.8903V7.02364H57.4413V0.12207Z" fill="#000308"/>
<path d="M61.6143 7.06085C61.1714 7.06085 60.7703 6.95543 60.4111 6.7446C60.0579 6.53377 59.7796 6.24233 59.576 5.87028C59.3725 5.49202 59.2707 5.06727 59.2707 4.596C59.2707 4.12473 59.3725 3.70307 59.576 3.33102C59.7796 2.95277 60.0579 2.65823 60.4111 2.4474C60.7703 2.23657 61.1714 2.13115 61.6143 2.13115C62.0573 2.13115 62.4554 2.23657 62.8086 2.4474C63.1677 2.65823 63.4491 2.95277 63.6526 3.33102C63.8562 3.70307 63.9579 4.12473 63.9579 4.596C63.9579 5.06727 63.8562 5.49202 63.6526 5.87028C63.4491 6.24233 63.1677 6.53377 62.8086 6.7446C62.4554 6.95543 62.0573 7.06085 61.6143 7.06085ZM61.6143 6.64229C61.9735 6.64229 62.2938 6.55547 62.5751 6.38185C62.8625 6.20823 63.0869 5.96639 63.2486 5.65635C63.4162 5.3463 63.5 4.99285 63.5 4.596C63.5 4.19914 63.4162 3.84569 63.2486 3.53565C63.0869 3.22561 62.8625 2.98377 62.5751 2.81015C62.2938 2.63652 61.9735 2.54971 61.6143 2.54971C61.2552 2.54971 60.9319 2.63652 60.6446 2.81015C60.3632 2.98377 60.1387 3.22561 59.9711 3.53565C59.8095 3.84569 59.7287 4.19914 59.7287 4.596C59.7287 4.99285 59.8095 5.3463 59.9711 5.65635C60.1387 5.96639 60.3632 6.20823 60.6446 6.38185C60.9319 6.55547 61.2552 6.64229 61.6143 6.64229Z" fill="#000308"/>
<path d="M66.9136 2.13115C67.4942 2.13115 67.9402 2.28617 68.2515 2.59622C68.5628 2.90006 68.7184 3.34962 68.7184 3.94491V7.02364H68.2874V6.15862C68.1377 6.44386 67.9193 6.66709 67.6319 6.82831C67.3446 6.98334 67.0004 7.06085 66.5993 7.06085C66.0785 7.06085 65.6655 6.93373 65.3602 6.67949C65.0609 6.42526 64.9112 6.09041 64.9112 5.67495C64.9112 5.27189 65.0489 4.94635 65.3242 4.69831C65.6056 4.44408 66.0516 4.31696 66.6622 4.31696H68.2694V3.92631C68.2694 3.47364 68.1497 3.12949 67.9103 2.89386C67.6768 2.65823 67.3326 2.54041 66.8777 2.54041C66.5664 2.54041 66.2671 2.59622 65.9797 2.70783C65.6984 2.81945 65.4589 2.96827 65.2614 3.1543L65.0369 2.81945C65.2704 2.60242 65.5517 2.435 65.881 2.31718C66.2102 2.19316 66.5544 2.13115 66.9136 2.13115ZM66.6622 6.67949C67.0513 6.67949 67.3805 6.58648 67.6499 6.40045C67.9252 6.21443 68.1318 5.94469 68.2694 5.59124V4.67971H66.6711C66.2102 4.67971 65.875 4.76652 65.6655 4.94015C65.4619 5.11377 65.3602 5.35251 65.3602 5.65635C65.3602 5.97259 65.4739 6.22373 65.7014 6.40975C65.9288 6.58958 66.2491 6.67949 66.6622 6.67949Z" fill="#000308"/>
<path d="M74.7433 0.12207V7.02364H74.3034V5.87958C74.1178 6.25783 73.8574 6.54927 73.5222 6.7539C73.1869 6.95853 72.8068 7.06085 72.3818 7.06085C71.9448 7.06085 71.5497 6.95543 71.1965 6.7446C70.8434 6.53377 70.565 6.24233 70.3615 5.87028C70.1639 5.49823 70.0652 5.07347 70.0652 4.596C70.0652 4.11853 70.1639 3.69377 70.3615 3.32172C70.565 2.94347 70.8434 2.65203 71.1965 2.4474C71.5497 2.23657 71.9448 2.13115 72.3818 2.13115C72.8008 2.13115 73.175 2.23347 73.5042 2.4381C73.8394 2.64272 74.1028 2.92796 74.2944 3.29382V0.12207H74.7433ZM72.4087 6.64229C72.7679 6.64229 73.0882 6.55547 73.3695 6.38185C73.6569 6.20823 73.8813 5.96639 74.043 5.65635C74.2106 5.3463 74.2944 4.99285 74.2944 4.596C74.2944 4.19914 74.2106 3.84569 74.043 3.53565C73.8813 3.22561 73.6569 2.98377 73.3695 2.81015C73.0882 2.63652 72.7679 2.54971 72.4087 2.54971C72.0496 2.54971 71.7263 2.63652 71.439 2.81015C71.1576 2.98377 70.9332 3.22561 70.7655 3.53565C70.6039 3.84569 70.5231 4.19914 70.5231 4.596C70.5231 4.99285 70.6039 5.3463 70.7655 5.65635C70.9332 5.96639 71.1576 6.20823 71.439 6.38185C71.7263 6.55547 72.0496 6.64229 72.4087 6.64229Z" fill="#000308"/>
<path d="M80.7742 7.06085C80.3312 7.06085 79.9301 6.95543 79.571 6.7446C79.2178 6.53377 78.9394 6.24233 78.7359 5.87028C78.5324 5.49202 78.4306 5.06727 78.4306 4.596C78.4306 4.12473 78.5324 3.70307 78.7359 3.33102C78.9394 2.95277 79.2178 2.65823 79.571 2.4474C79.9301 2.23657 80.3312 2.13115 80.7742 2.13115C81.2172 2.13115 81.6152 2.23657 81.9684 2.4474C82.3276 2.65823 82.6089 2.95277 82.8125 3.33102C83.016 3.70307 83.1178 4.12473 83.1178 4.596C83.1178 5.06727 83.016 5.49202 82.8125 5.87028C82.6089 6.24233 82.3276 6.53377 81.9684 6.7446C81.6152 6.95543 81.2172 7.06085 80.7742 7.06085ZM80.7742 6.64229C81.1334 6.64229 81.4536 6.55547 81.735 6.38185C82.0223 6.20823 82.2468 5.96639 82.4084 5.65635C82.576 5.3463 82.6598 4.99285 82.6598 4.596C82.6598 4.19914 82.576 3.84569 82.4084 3.53565C82.2468 3.22561 82.0223 2.98377 81.735 2.81015C81.4536 2.63652 81.1334 2.54971 80.7742 2.54971C80.415 2.54971 80.0918 2.63652 79.8044 2.81015C79.5231 2.98377 79.2986 3.22561 79.131 3.53565C78.9694 3.84569 78.8885 4.19914 78.8885 4.596C78.8885 4.99285 78.9694 5.3463 79.131 5.65635C79.2986 5.96639 79.5231 6.20823 79.8044 6.38185C80.0918 6.55547 80.415 6.64229 80.7742 6.64229Z" fill="#000308"/>
<path d="M86.8003 2.13115C87.387 2.13115 87.8509 2.30788 88.1921 2.66133C88.5333 3.01478 88.7039 3.52325 88.7039 4.18674V7.02364H88.255V4.22395C88.255 3.67827 88.1203 3.26281 87.8509 2.97757C87.5875 2.69233 87.2164 2.54971 86.7375 2.54971C86.1867 2.54971 85.7527 2.72024 85.4355 3.06128C85.1182 3.40233 84.9596 3.8612 84.9596 4.43788V7.02364H84.5106V2.16836H84.9416V3.21941C85.1032 2.87836 85.3427 2.61172 85.66 2.41949C85.9832 2.22727 86.3633 2.13115 86.8003 2.13115Z" fill="#000308"/>
<path d="M95.1841 6.7167C95.0704 6.82831 94.9267 6.91512 94.7531 6.97713C94.5855 7.03294 94.4089 7.06085 94.2234 7.06085C93.8163 7.06085 93.502 6.94613 93.2805 6.7167C93.0591 6.48106 92.9483 6.15552 92.9483 5.74006V2.56831H92.0863V2.16836H92.9483V1.10801H93.3973V2.16836H94.8878V2.56831H93.3973V5.69355C93.3973 6.0098 93.4691 6.25163 93.6128 6.41905C93.7624 6.58028 93.9809 6.66089 94.2683 6.66089C94.5616 6.66089 94.804 6.57098 94.9956 6.39115L95.1841 6.7167Z" fill="#000308"/>
<path d="M98.7259 2.13115C99.3126 2.13115 99.7765 2.30788 100.118 2.66133C100.459 3.01478 100.63 3.52325 100.63 4.18674V7.02364H100.181V4.22395C100.181 3.67827 100.046 3.26281 99.7765 2.97757C99.5131 2.69233 99.1419 2.54971 98.6631 2.54971C98.1123 2.54971 97.6783 2.72024 97.3611 3.06128C97.0438 3.40233 96.8852 3.8612 96.8852 4.43788V7.02364H96.4362V0.12207H96.8852V3.1822C97.0468 2.84735 97.2862 2.59002 97.6035 2.41019C97.9208 2.22417 98.2949 2.13115 98.7259 2.13115Z" fill="#000308"/>
<path d="M106.447 4.70761H102.415C102.427 5.08587 102.52 5.42382 102.693 5.72146C102.867 6.0129 103.1 6.23923 103.394 6.40045C103.693 6.56168 104.028 6.64229 104.399 6.64229C104.705 6.64229 104.986 6.58648 105.243 6.47486C105.507 6.35705 105.725 6.18652 105.899 5.96329L106.159 6.27023C105.956 6.52447 105.698 6.7198 105.387 6.85622C105.082 6.99264 104.749 7.06085 104.39 7.06085C103.923 7.06085 103.507 6.95543 103.142 6.7446C102.777 6.53377 102.49 6.24233 102.28 5.87028C102.077 5.49823 101.975 5.07347 101.975 4.596C101.975 4.12473 102.071 3.70307 102.262 3.33102C102.46 2.95277 102.729 2.65823 103.07 2.4474C103.412 2.23657 103.795 2.13115 104.22 2.13115C104.645 2.13115 105.025 2.23657 105.36 2.4474C105.701 2.65203 105.968 2.94037 106.159 3.31242C106.357 3.68447 106.456 4.10613 106.456 4.5774L106.447 4.70761ZM104.22 2.54041C103.89 2.54041 103.594 2.61792 103.331 2.77294C103.067 2.92176 102.855 3.13569 102.693 3.41473C102.538 3.68757 102.448 3.99762 102.424 4.34486H106.016C105.998 3.99762 105.908 3.68757 105.746 3.41473C105.585 3.1419 105.372 2.92796 105.109 2.77294C104.845 2.61792 104.549 2.54041 104.22 2.54041Z" fill="#000308"/>
<path d="M37.3986 20.371H32.0225L30.9626 22.8579H28.9043L33.7428 12.112H35.709L40.5629 22.8579H38.4738L37.3986 20.371ZM36.7381 18.8052L34.7105 14.1077L32.6983 18.8052H36.7381Z" fill="#000308"/>
<path d="M46.2927 14.5682C47.0914 14.5682 47.8031 14.7422 48.4278 15.0902C49.0627 15.4381 49.5593 15.9294 49.9177 16.5639C50.2761 17.1984 50.4553 17.9301 50.4553 18.7591C50.4553 19.5881 50.2761 20.3249 49.9177 20.9697C49.5593 21.6042 49.0627 22.0955 48.4278 22.4434C47.8031 22.7914 47.0914 22.9654 46.2927 22.9654C45.1867 22.9654 44.3112 22.5969 43.666 21.8601V25.836H41.746V14.6603H43.5739V15.7349C43.8913 15.346 44.2804 15.0543 44.7413 14.8599C45.2123 14.6654 45.7294 14.5682 46.2927 14.5682ZM46.0776 21.3228C46.7842 21.3228 47.3628 21.0874 47.8133 20.6166C48.2741 20.1458 48.5046 19.5267 48.5046 18.7591C48.5046 17.9915 48.2741 17.3724 47.8133 16.9016C47.3628 16.4308 46.7842 16.1954 46.0776 16.1954C45.6168 16.1954 45.2021 16.3029 44.8334 16.5178C44.4648 16.7225 44.1729 17.0193 43.9579 17.4082C43.7428 17.7971 43.6353 18.2474 43.6353 18.7591C43.6353 19.2708 43.7428 19.7211 43.9579 20.11C44.1729 20.4989 44.4648 20.8008 44.8334 21.0157C45.2021 21.2204 45.6168 21.3228 46.0776 21.3228Z" fill="#000308"/>
<path d="M56.8229 14.5682C57.6217 14.5682 58.3334 14.7422 58.958 15.0902C59.5929 15.4381 60.0896 15.9294 60.448 16.5639C60.8064 17.1984 60.9856 17.9301 60.9856 18.7591C60.9856 19.5881 60.8064 20.3249 60.448 20.9697C60.0896 21.6042 59.5929 22.0955 58.958 22.4434C58.3334 22.7914 57.6217 22.9654 56.8229 22.9654C55.717 22.9654 54.8414 22.5969 54.1963 21.8601V25.836H52.2763V14.6603H54.1041V15.7349C54.4216 15.346 54.8107 15.0543 55.2715 14.8599C55.7426 14.6654 56.2597 14.5682 56.8229 14.5682ZM56.6079 21.3228C57.3145 21.3228 57.8931 21.0874 58.3436 20.6166C58.8044 20.1458 59.0348 19.5267 59.0348 18.7591C59.0348 17.9915 58.8044 17.3724 58.3436 16.9016C57.8931 16.4308 57.3145 16.1954 56.6079 16.1954C56.1471 16.1954 55.7324 16.3029 55.3637 16.5178C54.9951 16.7225 54.7032 17.0193 54.4882 17.4082C54.2731 17.7971 54.1656 18.2474 54.1656 18.7591C54.1656 19.2708 54.2731 19.7211 54.4882 20.11C54.7032 20.4989 54.9951 20.8008 55.3637 21.0157C55.7324 21.2204 56.1471 21.3228 56.6079 21.3228Z" fill="#000308"/>
<path d="M70.5692 23.0114C69.7397 23.0114 68.9359 22.8937 68.1576 22.6583C67.3896 22.4229 66.7803 22.1108 66.3297 21.7219L67.0209 20.1714C67.4613 20.5194 67.9989 20.8059 68.6338 21.0311C69.2789 21.246 69.9241 21.3535 70.5692 21.3535C71.3679 21.3535 71.9619 21.2255 72.351 20.9697C72.7504 20.7138 72.9501 20.3761 72.9501 19.9565C72.9501 19.6495 72.8374 19.3987 72.6121 19.2043C72.3971 18.9996 72.1206 18.841 71.7827 18.7284C71.4447 18.6158 70.9839 18.4879 70.4002 18.3446C69.581 18.1502 68.9154 17.9557 68.4034 17.7613C67.9016 17.5668 67.4664 17.2649 67.0977 16.8556C66.7393 16.436 66.5601 15.8731 66.5601 15.1669C66.5601 14.5733 66.7189 14.036 67.0363 13.555C67.364 13.0638 67.8504 12.6749 68.4955 12.3883C69.1509 12.1018 69.9497 11.9585 70.8918 11.9585C71.5471 11.9585 72.1923 12.0404 72.8272 12.2041C73.4621 12.3679 74.0099 12.6032 74.4707 12.9103L73.841 14.4608C73.3699 14.1844 72.8784 13.9746 72.3664 13.8314C71.8544 13.6881 71.3577 13.6164 70.8764 13.6164C70.0879 13.6164 69.4991 13.7495 69.11 14.0156C68.7311 14.2817 68.5416 14.6347 68.5416 15.0748C68.5416 15.3818 68.6492 15.6326 68.8642 15.827C69.0895 16.0215 69.3711 16.175 69.709 16.2876C70.047 16.4001 70.5078 16.5281 71.0915 16.6713C71.8902 16.8556 72.5456 17.05 73.0576 17.2547C73.5696 17.4491 74.0048 17.751 74.3632 18.1604C74.7319 18.5698 74.9162 19.1224 74.9162 19.8183C74.9162 20.4119 74.7524 20.9492 74.4247 21.4302C74.1072 21.9112 73.6208 22.295 72.9654 22.5816C72.3101 22.8681 71.5113 23.0114 70.5692 23.0114Z" fill="#000308"/>
<path d="M81.6426 22.4127C81.4173 22.5969 81.1409 22.7351 80.8132 22.8272C80.4957 22.9193 80.1578 22.9654 79.7994 22.9654C78.8982 22.9654 78.2019 22.73 77.7104 22.2592C77.2188 21.7884 76.9731 21.1027 76.9731 20.2021V16.2569H75.6213V14.7217H76.9731V12.8489H78.8931V14.7217H81.0897V16.2569H78.8931V20.1561C78.8931 20.5552 78.9904 20.8622 79.185 21.0772C79.3795 21.2818 79.6611 21.3842 80.0298 21.3842C80.4599 21.3842 80.8183 21.2716 81.105 21.0465L81.6426 22.4127Z" fill="#000308"/>
<path d="M86.6386 22.9654C85.8091 22.9654 85.0616 22.7863 84.396 22.4281C83.7304 22.0699 83.2081 21.5735 82.8292 20.939C82.4606 20.2942 82.2762 19.5676 82.2762 18.7591C82.2762 17.9506 82.4606 17.2291 82.8292 16.5946C83.2081 15.9601 83.7304 15.4637 84.396 15.1055C85.0616 14.7473 85.8091 14.5682 86.6386 14.5682C87.4783 14.5682 88.231 14.7473 88.8966 15.1055C89.5622 15.4637 90.0793 15.9601 90.448 16.5946C90.8269 17.2291 91.0163 17.9506 91.0163 18.7591C91.0163 19.5676 90.8269 20.2942 90.448 20.939C90.0793 21.5735 89.5622 22.0699 88.8966 22.4281C88.231 22.7863 87.4783 22.9654 86.6386 22.9654ZM86.6386 21.3228C87.3452 21.3228 87.9289 21.0874 88.3897 20.6166C88.8505 20.1458 89.0809 19.5267 89.0809 18.7591C89.0809 17.9915 88.8505 17.3724 88.3897 16.9016C87.9289 16.4308 87.3452 16.1954 86.6386 16.1954C85.932 16.1954 85.3483 16.4308 84.8875 16.9016C84.4369 17.3724 84.2117 17.9915 84.2117 18.7591C84.2117 19.5267 84.4369 20.1458 84.8875 20.6166C85.3483 21.0874 85.932 21.3228 86.6386 21.3228Z" fill="#000308"/>
<path d="M94.6803 15.8577C95.2332 14.998 96.2061 14.5682 97.5987 14.5682V16.395C97.4349 16.3643 97.2864 16.349 97.1533 16.349C96.4058 16.349 95.8221 16.569 95.4022 17.0091C94.9824 17.4389 94.7724 18.0632 94.7724 18.8819V22.8579H92.8524V14.6603H94.6803V15.8577Z" fill="#000308"/>
<path d="M106.863 18.8052C106.863 18.9382 106.853 19.1275 106.833 19.3732H100.397C100.509 19.977 100.801 20.458 101.272 20.8162C101.754 21.1641 102.348 21.3381 103.054 21.3381C103.955 21.3381 104.698 21.0413 105.281 20.4478L106.311 21.6298C105.942 22.0699 105.476 22.4025 104.913 22.6276C104.349 22.8528 103.715 22.9654 103.008 22.9654C102.107 22.9654 101.313 22.7863 100.627 22.4281C99.941 22.0699 99.4086 21.5735 99.0297 20.939C98.661 20.2942 98.4767 19.5676 98.4767 18.7591C98.4767 17.9608 98.6559 17.2445 99.0143 16.6099C99.383 15.9652 99.8898 15.4637 100.535 15.1055C101.18 14.7473 101.907 14.5682 102.716 14.5682C103.515 14.5682 104.227 14.7473 104.851 15.1055C105.486 15.4535 105.978 15.9498 106.326 16.5946C106.684 17.2291 106.863 17.966 106.863 18.8052ZM102.716 16.1033C102.102 16.1033 101.579 16.2876 101.149 16.656C100.73 17.0142 100.474 17.4952 100.381 18.099H105.036C104.954 17.5054 104.703 17.0244 104.283 16.656C103.863 16.2876 103.341 16.1033 102.716 16.1033Z" fill="#000308"/>
</svg>
