<svg width="120" height="27" viewBox="0 0 120 27" fill="none" xmlns="http://www.w3.org/2000/svg">
<path d="M33.1963 5.19128H29.5364L28.7341 7.02364H28.2383L31.141 0.512725H31.6008L34.5035 7.02364H34.0077L33.1963 5.19128ZM33.0251 4.79133L31.3664 1.0336L29.7167 4.79133H33.0251Z" fill="#000308"/>
<path d="M39.0443 2.16836L36.9168 7.02364H36.4571L34.3386 2.16836H34.8164L36.6914 6.51207L38.5845 2.16836H39.0443Z" fill="#000308"/>
<path d="M41.4755 2.13115C42.0584 2.13115 42.5062 2.28617 42.8187 2.59622C43.1312 2.90006 43.2874 3.34962 43.2874 3.94491V7.02364H42.8547V6.15862C42.7045 6.44386 42.4851 6.66709 42.1966 6.82831C41.9082 6.98334 41.5626 7.06085 41.16 7.06085C40.6371 7.06085 40.2224 6.93373 39.9159 6.67949C39.6154 6.42526 39.4652 6.09041 39.4652 5.67495C39.4652 5.27189 39.6034 4.94635 39.8799 4.69831C40.1623 4.44408 40.6101 4.31696 41.2231 4.31696H42.8367V3.92631C42.8367 3.47364 42.7165 3.12949 42.4761 2.89386C42.2417 2.65823 41.8962 2.54041 41.4394 2.54041C41.1269 2.54041 40.8264 2.59622 40.5379 2.70783C40.2555 2.81945 40.0151 2.96827 39.8168 3.1543L39.5914 2.81945C39.8258 2.60242 40.1082 2.435 40.4388 2.31718C40.7693 2.19316 41.1149 2.13115 41.4755 2.13115ZM41.2231 6.67949C41.6137 6.67949 41.9442 6.58648 42.2147 6.40045C42.4911 6.21443 42.6985 5.94469 42.8367 5.59124V4.67971H41.2321C40.7693 4.67971 40.4328 4.76652 40.2224 4.94015C40.0181 5.11377 39.9159 5.35251 39.9159 5.65635C39.9159 5.97259 40.0301 6.22373 40.2585 6.40975C40.4869 6.58958 40.8084 6.67949 41.2231 6.67949Z" fill="#000308"/>
<path d="M45.1445 2.16836H45.5952V7.02364H45.1445V2.16836ZM45.3699 0.987092C45.2677 0.987092 45.1806 0.952987 45.1085 0.884778C45.0363 0.810367 45.0003 0.720454 45.0003 0.61504C45.0003 0.509625 45.0363 0.419712 45.1085 0.345302C45.1806 0.270891 45.2677 0.233686 45.3699 0.233686C45.472 0.233686 45.5592 0.270891 45.6313 0.345302C45.7034 0.413511 45.7395 0.500324 45.7395 0.605738C45.7395 0.711153 45.7034 0.801066 45.6313 0.875476C45.5592 0.949887 45.472 0.987092 45.3699 0.987092Z" fill="#000308"/>
<path d="M47.495 0.12207H47.9457V7.02364H47.495V0.12207Z" fill="#000308"/>
<path d="M51.4321 2.13115C52.0151 2.13115 52.4628 2.28617 52.7753 2.59622C53.0878 2.90006 53.2441 3.34962 53.2441 3.94491V7.02364H52.8113V6.15862C52.6611 6.44386 52.4417 6.66709 52.1533 6.82831C51.8648 6.98334 51.5192 7.06085 51.1166 7.06085C50.5937 7.06085 50.1791 6.93373 49.8726 6.67949C49.5721 6.42526 49.4218 6.09041 49.4218 5.67495C49.4218 5.27189 49.5601 4.94635 49.8365 4.69831C50.119 4.44408 50.5667 4.31696 51.1797 4.31696H52.7933V3.92631C52.7933 3.47364 52.6731 3.12949 52.4327 2.89386C52.1984 2.65823 51.8528 2.54041 51.396 2.54041C51.0835 2.54041 50.783 2.59622 50.4946 2.70783C50.2121 2.81945 49.9717 2.96827 49.7734 3.1543L49.548 2.81945C49.7824 2.60242 50.0649 2.435 50.3954 2.31718C50.726 2.19316 51.0715 2.13115 51.4321 2.13115ZM51.1797 6.67949C51.5703 6.67949 51.9009 6.58648 52.1713 6.40045C52.4478 6.21443 52.6551 5.94469 52.7933 5.59124V4.67971H51.1887C50.726 4.67971 50.3894 4.76652 50.1791 4.94015C49.9747 5.11377 49.8726 5.35251 49.8726 5.65635C49.8726 5.97259 49.9867 6.22373 50.2151 6.40975C50.4435 6.58958 50.765 6.67949 51.1797 6.67949Z" fill="#000308"/>
<path d="M57.463 2.13115C57.9017 2.13115 58.2983 2.23657 58.6529 2.4474C59.0075 2.65203 59.284 2.94347 59.4823 3.32172C59.6866 3.69377 59.7888 4.11853 59.7888 4.596C59.7888 5.07347 59.6866 5.49823 59.4823 5.87028C59.284 6.24233 59.0075 6.53377 58.6529 6.7446C58.2983 6.95543 57.9017 7.06085 57.463 7.06085C57.0423 7.06085 56.6607 6.95853 56.3181 6.7539C55.9816 6.54307 55.7202 6.25163 55.5338 5.87958V7.02364H55.1011V0.12207H55.5519V3.27521C55.7382 2.91556 55.9996 2.63652 56.3362 2.4381C56.6727 2.23347 57.0483 2.13115 57.463 2.13115ZM57.4359 6.64229C57.7965 6.64229 58.1211 6.55547 58.4095 6.38185C58.698 6.20823 58.9234 5.96639 59.0856 5.65635C59.2539 5.3463 59.338 4.99285 59.338 4.596C59.338 4.19914 59.2539 3.84569 59.0856 3.53565C58.9234 3.22561 58.698 2.98377 58.4095 2.81015C58.1211 2.63652 57.7965 2.54971 57.4359 2.54971C57.0754 2.54971 56.7508 2.63652 56.4624 2.81015C56.1799 2.98377 55.9545 3.22561 55.7863 3.53565C55.624 3.84569 55.5429 4.19914 55.5429 4.596C55.5429 4.99285 55.624 5.3463 55.7863 5.65635C55.9545 5.96639 56.1799 6.20823 56.4624 6.38185C56.7508 6.55547 57.0754 6.64229 57.4359 6.64229Z" fill="#000308"/>
<path d="M61.1843 0.12207H61.635V7.02364H61.1843V0.12207Z" fill="#000308"/>
<path d="M67.5103 4.70761H63.4627C63.4747 5.08587 63.5678 5.42382 63.7421 5.72146C63.9164 6.0129 64.1508 6.23923 64.4453 6.40045C64.7458 6.56168 65.0823 6.64229 65.4549 6.64229C65.7614 6.64229 66.0439 6.58648 66.3023 6.47486C66.5667 6.35705 66.7861 6.18652 66.9604 5.96329L67.2218 6.27023C67.0175 6.52447 66.759 6.7198 66.4465 6.85622C66.14 6.99264 65.8065 7.06085 65.4459 7.06085C64.9771 7.06085 64.5595 6.95543 64.1929 6.7446C63.8263 6.53377 63.5378 6.24233 63.3274 5.87028C63.1231 5.49823 63.021 5.07347 63.021 4.596C63.021 4.12473 63.1171 3.70307 63.3094 3.33102C63.5077 2.95277 63.7782 2.65823 64.1207 2.4474C64.4633 2.23657 64.8479 2.13115 65.2746 2.13115C65.7013 2.13115 66.0829 2.23657 66.4195 2.4474C66.762 2.65203 67.0295 2.94037 67.2218 3.31242C67.4201 3.68447 67.5193 4.10613 67.5193 4.5774L67.5103 4.70761ZM65.2746 2.54041C64.9441 2.54041 64.6466 2.61792 64.3822 2.77294C64.1177 2.92176 63.9044 3.13569 63.7421 3.41473C63.5859 3.68757 63.4957 3.99762 63.4717 4.34486H67.0775C67.0595 3.99762 66.9694 3.68757 66.8071 3.41473C66.6448 3.1419 66.4315 2.92796 66.1671 2.77294C65.9026 2.61792 65.6052 2.54041 65.2746 2.54041Z" fill="#000308"/>
<path d="M73.0679 7.06085C72.6232 7.06085 72.2206 6.95543 71.86 6.7446C71.5054 6.53377 71.2259 6.24233 71.0216 5.87028C70.8173 5.49202 70.7151 5.06727 70.7151 4.596C70.7151 4.12473 70.8173 3.70307 71.0216 3.33102C71.2259 2.95277 71.5054 2.65823 71.86 2.4474C72.2206 2.23657 72.6232 2.13115 73.0679 2.13115C73.5127 2.13115 73.9123 2.23657 74.2669 2.4474C74.6275 2.65823 74.9099 2.95277 75.1143 3.33102C75.3186 3.70307 75.4208 4.12473 75.4208 4.596C75.4208 5.06727 75.3186 5.49202 75.1143 5.87028C74.9099 6.24233 74.6275 6.53377 74.2669 6.7446C73.9123 6.95543 73.5127 7.06085 73.0679 7.06085ZM73.0679 6.64229C73.4285 6.64229 73.75 6.55547 74.0325 6.38185C74.321 6.20823 74.5463 5.96639 74.7086 5.65635C74.8769 5.3463 74.961 4.99285 74.961 4.596C74.961 4.19914 74.8769 3.84569 74.7086 3.53565C74.5463 3.22561 74.321 2.98377 74.0325 2.81015C73.75 2.63652 73.4285 2.54971 73.0679 2.54971C72.7074 2.54971 72.3828 2.63652 72.0944 2.81015C71.8119 2.98377 71.5865 3.22561 71.4183 3.53565C71.256 3.84569 71.1749 4.19914 71.1749 4.596C71.1749 4.99285 71.256 5.3463 71.4183 5.65635C71.5865 5.96639 71.8119 6.20823 72.0944 6.38185C72.3828 6.55547 72.7074 6.64229 73.0679 6.64229Z" fill="#000308"/>
<path d="M79.1178 2.13115C79.7068 2.13115 80.1725 2.30788 80.5151 2.66133C80.8577 3.01478 81.0289 3.52325 81.0289 4.18674V7.02364H80.5782V4.22395C80.5782 3.67827 80.443 3.26281 80.1726 2.97757C79.9081 2.69233 79.5355 2.54971 79.0547 2.54971C78.5018 2.54971 78.0661 2.72024 77.7476 3.06128C77.4291 3.40233 77.2698 3.8612 77.2698 4.43788V7.02364H76.8191V2.16836H77.2518V3.21941C77.4141 2.87836 77.6545 2.61172 77.973 2.41949C78.2975 2.22727 78.6791 2.13115 79.1178 2.13115Z" fill="#000308"/>
<path d="M87.5347 6.7167C87.4205 6.82831 87.2763 6.91512 87.102 6.97713C86.9337 7.03294 86.7565 7.06085 86.5701 7.06085C86.1615 7.06085 85.846 6.94613 85.6236 6.7167C85.4012 6.48106 85.2901 6.15552 85.2901 5.74006V2.56831H84.4247V2.16836H85.2901V1.10801H85.7408V2.16836H87.2372V2.56831H85.7408V5.69355C85.7408 6.0098 85.8129 6.25163 85.9571 6.41905C86.1074 6.58028 86.3267 6.66089 86.6152 6.66089C86.9097 6.66089 87.1531 6.57098 87.3454 6.39115L87.5347 6.7167Z" fill="#000308"/>
<path d="M91.0904 2.13115C91.6794 2.13115 92.1452 2.30788 92.4877 2.66133C92.8303 3.01478 93.0015 3.52325 93.0015 4.18674V7.02364H92.5508V4.22395C92.5508 3.67827 92.4156 3.26281 92.1452 2.97757C91.8807 2.69233 91.5081 2.54971 91.0273 2.54971C90.4744 2.54971 90.0387 2.72024 89.7202 3.06128C89.4017 3.40233 89.2424 3.8612 89.2424 4.43788V7.02364H88.7917V0.12207H89.2424V3.1822C89.4047 2.84735 89.6451 2.59002 89.9636 2.41019C90.2821 2.22417 90.6577 2.13115 91.0904 2.13115Z" fill="#000308"/>
<path d="M98.8415 4.70761H94.7939C94.8059 5.08587 94.8991 5.42382 95.0734 5.72146C95.2477 6.0129 95.482 6.23923 95.7765 6.40045C96.077 6.56168 96.4136 6.64229 96.7862 6.64229C97.0927 6.64229 97.3751 6.58648 97.6335 6.47486C97.898 6.35705 98.1173 6.18652 98.2916 5.96329L98.553 6.27023C98.3487 6.52447 98.0903 6.7198 97.7778 6.85622C97.4713 6.99264 97.1377 7.06085 96.7771 7.06085C96.3084 7.06085 95.8907 6.95543 95.5241 6.7446C95.1575 6.53377 94.869 6.24233 94.6587 5.87028C94.4544 5.49823 94.3522 5.07347 94.3522 4.596C94.3522 4.12473 94.4484 3.70307 94.6407 3.33102C94.839 2.95277 95.1094 2.65823 95.452 2.4474C95.7945 2.23657 96.1792 2.13115 96.6059 2.13115C97.0326 2.13115 97.4142 2.23657 97.7507 2.4474C98.0933 2.65203 98.3607 2.94037 98.553 3.31242C98.7514 3.68447 98.8505 4.10613 98.8505 4.5774L98.8415 4.70761ZM96.6059 2.54041C96.2753 2.54041 95.9778 2.61792 95.7134 2.77294C95.449 2.92176 95.2356 3.13569 95.0734 3.41473C94.9171 3.68757 94.827 3.99762 94.8029 4.34486H98.4088C98.3908 3.99762 98.3006 3.68757 98.1384 3.41473C97.9761 3.1419 97.7627 2.92796 97.4983 2.77294C97.2339 2.61792 96.9364 2.54041 96.6059 2.54041Z" fill="#000308"/>
<path d="M35.7521 17.7758H37.5976V22.0024C37.0575 22.4367 36.4273 22.77 35.7071 23.0023C34.9869 23.2346 34.2467 23.3507 33.4865 23.3507C32.4163 23.3507 31.451 23.1184 30.5908 22.6538C29.7306 22.1792 29.0554 21.5278 28.5653 20.6996C28.0751 19.8714 27.8301 18.9372 27.8301 17.897C27.8301 16.8567 28.0751 15.9225 28.5653 15.0944C29.0554 14.2662 29.7306 13.6199 30.5908 13.1553C31.461 12.6806 32.4363 12.4433 33.5165 12.4433C34.3968 12.4433 35.197 12.5897 35.9172 12.8826C36.6374 13.1755 37.2425 13.6047 37.7326 14.1703L36.5023 15.3822C35.7021 14.5743 34.7369 14.1703 33.6066 14.1703C32.8664 14.1703 32.2062 14.3268 31.6261 14.6399C31.0559 14.953 30.6058 15.3923 30.2757 15.9579C29.9556 16.5235 29.7956 17.1698 29.7956 17.897C29.7956 18.604 29.9556 19.2402 30.2757 19.8058C30.6058 20.3714 31.0559 20.8157 31.6261 21.1389C32.2062 21.4621 32.8614 21.6237 33.5916 21.6237C34.4118 21.6237 35.132 21.4419 35.7521 21.0783V17.7758Z" fill="#000308"/>
<path d="M43.5911 23.3053C42.7809 23.3053 42.0507 23.1285 41.4005 22.775C40.7503 22.4216 40.2402 21.9317 39.8701 21.3056C39.51 20.6693 39.33 19.9522 39.33 19.1544C39.33 18.3565 39.51 17.6445 39.8701 17.0183C40.2402 16.3922 40.7503 15.9023 41.4005 15.5489C42.0507 15.1954 42.7809 15.0186 43.5911 15.0186C44.4113 15.0186 45.1465 15.1954 45.7966 15.5489C46.4468 15.9023 46.9519 16.3922 47.312 17.0183C47.6821 17.6445 47.8672 18.3565 47.8672 19.1544C47.8672 19.9522 47.6821 20.6693 47.312 21.3056C46.9519 21.9317 46.4468 22.4216 45.7966 22.775C45.1465 23.1285 44.4113 23.3053 43.5911 23.3053ZM43.5911 21.6843C44.2812 21.6843 44.8514 21.452 45.3015 20.9874C45.7516 20.5229 45.9767 19.9118 45.9767 19.1544C45.9767 18.3969 45.7516 17.7859 45.3015 17.3213C44.8514 16.8567 44.2812 16.6245 43.5911 16.6245C42.9009 16.6245 42.3307 16.8567 41.8806 17.3213C41.4405 17.7859 41.2205 18.3969 41.2205 19.1544C41.2205 19.9118 41.4405 20.5229 41.8806 20.9874C42.3307 21.452 42.9009 21.6843 43.5911 21.6843Z" fill="#000308"/>
<path d="M53.2615 23.3053C52.4513 23.3053 51.7211 23.1285 51.071 22.775C50.4208 22.4216 49.9107 21.9317 49.5406 21.3056C49.1805 20.6693 49.0004 19.9522 49.0004 19.1544C49.0004 18.3565 49.1805 17.6445 49.5406 17.0183C49.9107 16.3922 50.4208 15.9023 51.071 15.5489C51.7211 15.1954 52.4513 15.0186 53.2615 15.0186C54.0817 15.0186 54.8169 15.1954 55.4671 15.5489C56.1173 15.9023 56.6224 16.3922 56.9825 17.0183C57.3526 17.6445 57.5376 18.3565 57.5376 19.1544C57.5376 19.9522 57.3526 20.6693 56.9825 21.3056C56.6224 21.9317 56.1173 22.4216 55.4671 22.775C54.8169 23.1285 54.0817 23.3053 53.2615 23.3053ZM53.2615 21.6843C53.9517 21.6843 54.5219 21.452 54.972 20.9874C55.4221 20.5229 55.6471 19.9118 55.6471 19.1544C55.6471 18.3969 55.4221 17.7859 54.972 17.3213C54.5219 16.8567 53.9517 16.6245 53.2615 16.6245C52.5713 16.6245 52.0012 16.8567 51.5511 17.3213C51.111 17.7859 50.8909 18.3969 50.8909 19.1544C50.8909 19.9118 51.111 20.5229 51.5511 20.9874C52.0012 21.452 52.5713 21.6843 53.2615 21.6843Z" fill="#000308"/>
<path d="M67.2831 15.1095V21.9721C67.2831 24.8202 65.8427 26.2442 62.962 26.2442C62.1918 26.2442 61.4616 26.1432 60.7714 25.9412C60.0813 25.7493 59.5111 25.4666 59.061 25.0929L59.9012 23.6688C60.2513 23.9617 60.6914 24.194 61.2215 24.3657C61.7617 24.5475 62.3068 24.6384 62.857 24.6384C63.7372 24.6384 64.3824 24.4364 64.7925 24.0324C65.2026 23.6284 65.4076 23.0124 65.4076 22.1842V21.76C65.0876 22.1135 64.6974 22.3812 64.2373 22.5629C63.7772 22.7447 63.2721 22.8356 62.7219 22.8356C61.9617 22.8356 61.2716 22.674 60.6514 22.3509C60.0412 22.0176 59.5561 21.553 59.196 20.9571C58.8459 20.3613 58.6709 19.6795 58.6709 18.912C58.6709 18.1444 58.8459 17.4678 59.196 16.882C59.5561 16.2861 60.0412 15.8266 60.6514 15.5034C61.2716 15.1802 61.9617 15.0186 62.7219 15.0186C63.3021 15.0186 63.8272 15.1146 64.2973 15.3065C64.7775 15.4984 65.1776 15.7912 65.4977 16.1851V15.1095H67.2831ZM63.007 21.2298C63.7172 21.2298 64.2973 21.0177 64.7475 20.5936C65.2076 20.1593 65.4376 19.5988 65.4376 18.912C65.4376 18.2353 65.2076 17.6849 64.7475 17.2607C64.2973 16.8365 63.7172 16.6245 63.007 16.6245C62.2868 16.6245 61.6967 16.8365 61.2366 17.2607C60.7864 17.6849 60.5614 18.2353 60.5614 18.912C60.5614 19.5988 60.7864 20.1593 61.2366 20.5936C61.6967 21.0177 62.2868 21.2298 63.007 21.2298Z" fill="#000308"/>
<path d="M69.7488 11.9585H71.6243V23.1992H69.7488V11.9585Z" fill="#000308"/>
<path d="M81.6178 19.1998C81.6178 19.3311 81.6078 19.518 81.5878 19.7603H75.3012C75.4112 20.3562 75.6963 20.8309 76.1564 21.1844C76.6265 21.5278 77.2067 21.6994 77.8968 21.6994C78.7771 21.6994 79.5023 21.4066 80.0724 20.8208L81.0777 21.9873C80.7176 22.4216 80.2625 22.7498 79.7123 22.972C79.1622 23.1942 78.542 23.3053 77.8518 23.3053C76.9716 23.3053 76.1964 23.1285 75.5262 22.775C74.8561 22.4216 74.3359 21.9317 73.9658 21.3056C73.6057 20.6693 73.4257 19.9522 73.4257 19.1544C73.4257 18.3666 73.6007 17.6597 73.9508 17.0335C74.3109 16.3972 74.806 15.9023 75.4362 15.5489C76.0664 15.1954 76.7766 15.0186 77.5668 15.0186C78.347 15.0186 79.0421 15.1954 79.6523 15.5489C80.2724 15.8922 80.7526 16.3821 81.0927 17.0183C81.4428 17.6445 81.6178 18.3717 81.6178 19.1998ZM77.5668 16.5336C76.9666 16.5336 76.4565 16.7154 76.0364 17.0789C75.6263 17.4324 75.3762 17.9071 75.2862 18.503H79.8323C79.7523 17.9172 79.5072 17.4425 79.0971 17.0789C78.687 16.7154 78.1769 16.5336 77.5668 16.5336Z" fill="#000308"/>
<path d="M92.0671 12.5948C92.9773 12.5948 93.7675 12.7463 94.4377 13.0492C95.1178 13.3522 95.638 13.7865 95.9981 14.3521C96.3582 14.9176 96.5382 15.5893 96.5382 16.3669C96.5382 17.1345 96.3582 17.8061 95.9981 18.3818C95.638 18.9473 95.1178 19.3816 94.4377 19.6846C93.7675 19.9876 92.9773 20.1391 92.0671 20.1391H89.6964V23.1992H87.7459V12.5948H92.0671ZM91.977 18.4727C92.8272 18.4727 93.4724 18.2909 93.9125 17.9273C94.3526 17.5637 94.5727 17.0436 94.5727 16.3669C94.5727 15.6903 94.3526 15.1701 93.9125 14.8066C93.4724 14.443 92.8272 14.2612 91.977 14.2612H89.6964V18.4727H91.977Z" fill="#000308"/>
<path d="M98.4525 11.9585H100.328V23.1992H98.4525V11.9585Z" fill="#000308"/>
<path d="M105.85 15.0186C107.031 15.0186 107.931 15.3065 108.551 15.8821C109.181 16.4477 109.496 17.3062 109.496 18.4575V23.1992H107.726V22.2145C107.496 22.568 107.166 22.8407 106.736 23.0326C106.315 23.2144 105.805 23.3053 105.205 23.3053C104.605 23.3053 104.08 23.2043 103.63 23.0023C103.18 22.7902 102.83 22.5024 102.579 22.1388C102.339 21.7651 102.219 21.346 102.219 20.8814C102.219 20.1542 102.484 19.5735 103.015 19.1392C103.555 18.6948 104.4 18.4727 105.55 18.4727H107.621V18.3515C107.621 17.7859 107.451 17.3516 107.111 17.0486C106.781 16.7456 106.285 16.5942 105.625 16.5942C105.175 16.5942 104.73 16.6649 104.29 16.8062C103.86 16.9476 103.495 17.1446 103.195 17.3971L102.459 16.0185C102.88 15.6953 103.385 15.4479 103.975 15.2762C104.565 15.1045 105.19 15.0186 105.85 15.0186ZM105.595 21.9267C106.065 21.9267 106.481 21.8206 106.841 21.6085C107.211 21.3864 107.471 21.0733 107.621 20.6693V19.73H105.685C104.605 19.73 104.065 20.0886 104.065 20.8056C104.065 21.149 104.2 21.4217 104.47 21.6237C104.74 21.8257 105.115 21.9267 105.595 21.9267Z" fill="#000308"/>
<path d="M119.259 15.1095L115.508 23.8506C115.158 24.7293 114.732 25.3454 114.232 25.6988C113.732 26.0624 113.127 26.2442 112.417 26.2442C112.017 26.2442 111.622 26.1786 111.232 26.0473C110.841 25.916 110.521 25.7342 110.271 25.5019L111.022 24.1082C111.202 24.2799 111.412 24.4162 111.652 24.5172C111.902 24.6182 112.152 24.6687 112.402 24.6687C112.732 24.6687 113.002 24.5828 113.212 24.4112C113.432 24.2395 113.632 23.9516 113.812 23.5476L113.947 23.2295L110.451 15.1095H112.402L114.923 21.0935L117.458 15.1095H119.259Z" fill="#000308"/>
<path d="M22.7947 12.5099L18.2492 9.82324L14.5059 13.5845L17.9818 16.8085L22.7947 13.8532C23.0621 13.5846 23.3293 13.3159 23.3293 13.0473C23.3293 13.0473 23.0621 12.7786 22.7947 12.5099Z" fill="#000308"/>
<path d="M17.4474 9.366L12.4412 6.75164L1.63867 1L14.0221 12.7646L17.4474 9.366Z" fill="#000308"/>
<path d="M1.63867 26L12.6244 19.987L17.4474 17.3726L14.232 14.2354L1.63867 26Z" fill="#000308"/>
<path d="M0.904297 1.36768V25.6323L13.4042 13.6333L0.904297 1.36768Z" fill="#000308"/>
</svg>
