<svg width="180" height="40" viewBox="0 0 180 40" fill="none" xmlns="http://www.w3.org/2000/svg">
<path d="M50.3355 7.78766H44.8456L43.6421 10.5362H42.8984L47.2525 0.76982H47.9421L52.2962 10.5362H51.5525L50.3355 7.78766ZM50.0786 7.18772L47.5906 1.55113L45.116 7.18772H50.0786Z" fill="#FFFFFF"/>
<path d="M59.1074 3.25327L55.9162 10.5362H55.2266L52.0489 3.25327H52.7656L55.5782 9.76883L58.4178 3.25327H59.1074Z" fill="#FFFFFF"/>
<path d="M62.7542 3.19746C63.6287 3.19746 64.3002 3.42999 64.769 3.89506C65.2378 4.35082 65.4722 5.02517 65.4722 5.91809V10.5362H64.8231V9.23866C64.5977 9.66652 64.2687 10.0014 63.836 10.2432C63.4033 10.4757 62.8849 10.592 62.281 10.592C61.4967 10.592 60.8747 10.4013 60.4149 10.02C59.9642 9.63862 59.7388 9.13635 59.7388 8.51316C59.7388 7.90857 59.9462 7.42025 60.3608 7.0482C60.7845 6.66685 61.4561 6.47617 62.3756 6.47617H64.7961V5.89019C64.7961 5.21119 64.6158 4.69497 64.2552 4.34152C63.9036 3.98807 63.3853 3.81135 62.7001 3.81135C62.2314 3.81135 61.7806 3.89506 61.3479 4.06248C60.9243 4.22991 60.5637 4.45314 60.2662 4.73218L59.9281 4.22991C60.2797 3.90436 60.7034 3.65323 61.1992 3.4765C61.695 3.29047 62.2133 3.19746 62.7542 3.19746ZM62.3756 10.02C62.9616 10.02 63.4574 9.88045 63.863 9.60141C64.2777 9.32237 64.5887 8.91776 64.7961 8.38759V7.0203H62.3891C61.695 7.0203 61.1902 7.15052 60.8747 7.41095C60.5682 7.67139 60.4149 8.02949 60.4149 8.48525C60.4149 8.95962 60.5862 9.33632 60.9288 9.61536C61.2713 9.8851 61.7536 10.02 62.3756 10.02Z" fill="#FFFFFF"/>
<path d="M68.2578 3.25327H68.9339V10.5362H68.2578V3.25327ZM68.5958 1.48137C68.4426 1.48137 68.3119 1.43021 68.2037 1.3279C68.0955 1.21628 68.0414 1.08141 68.0414 0.923292C68.0414 0.76517 68.0955 0.630301 68.2037 0.518685C68.3119 0.407069 68.4426 0.351262 68.5958 0.351262C68.7491 0.351262 68.8798 0.407069 68.988 0.518685C69.0962 0.621 69.1502 0.751218 69.1502 0.90934C69.1502 1.06746 69.0962 1.20233 68.988 1.31395C68.8798 1.42556 68.7491 1.48137 68.5958 1.48137Z" fill="#FFFFFF"/>
<path d="M71.7835 0.183838H72.4596V10.5362H71.7835V0.183838Z" fill="#FFFFFF"/>
<path d="M77.6892 3.19746C78.5636 3.19746 79.2352 3.42999 79.704 3.89506C80.1727 4.35082 80.4071 5.02517 80.4071 5.91809V10.5362H79.758V9.23866C79.5327 9.66652 79.2036 10.0014 78.7709 10.2432C78.3382 10.4757 77.8199 10.592 77.2159 10.592C76.4316 10.592 75.8096 10.4013 75.3499 10.02C74.8991 9.63862 74.6738 9.13635 74.6738 8.51316C74.6738 7.90857 74.8811 7.42025 75.2958 7.0482C75.7195 6.66685 76.3911 6.47617 77.3106 6.47617H79.731V5.89019C79.731 5.21119 79.5507 4.69497 79.1901 4.34152C78.8385 3.98807 78.3202 3.81135 77.6351 3.81135C77.1663 3.81135 76.7156 3.89506 76.2829 4.06248C75.8592 4.22991 75.4986 4.45314 75.2011 4.73218L74.8631 4.22991C75.2146 3.90436 75.6383 3.65323 76.1341 3.4765C76.6299 3.29047 77.1483 3.19746 77.6892 3.19746ZM77.3106 10.02C77.8965 10.02 78.3923 9.88045 78.798 9.60141C79.2127 9.32237 79.5237 8.91776 79.731 8.38759V7.0203H77.3241C76.63 7.0203 76.1251 7.15052 75.8096 7.41095C75.5031 7.67139 75.3499 8.02949 75.3499 8.48525C75.3499 8.95962 75.5211 9.33632 75.8637 9.61536C76.2063 9.8851 76.6885 10.02 77.3106 10.02Z" fill="#FFFFFF"/>
<path d="M86.7355 3.19746C87.3936 3.19746 87.9885 3.35558 88.5204 3.67183C89.0523 3.97877 89.4669 4.41593 89.7644 4.98331C90.0709 5.54139 90.2242 6.17853 90.2242 6.89473C90.2242 7.61093 90.0709 8.24807 89.7644 8.80615C89.4669 9.36423 89.0523 9.80139 88.5204 10.1176C87.9885 10.4339 87.3936 10.592 86.7355 10.592C86.1045 10.592 85.532 10.4385 85.0182 10.1316C84.5134 9.81534 84.1212 9.37818 83.8418 8.8201V10.5362H83.1927V0.183838H83.8688V4.91355C84.1483 4.37408 84.5404 3.95552 85.0452 3.65788C85.5501 3.35093 86.1135 3.19746 86.7355 3.19746ZM86.6949 9.96416C87.2358 9.96416 87.7226 9.83394 88.1553 9.57351C88.588 9.31307 88.9261 8.95032 89.1695 8.48525C89.4219 8.02019 89.5481 7.49001 89.5481 6.89473C89.5481 6.29945 89.4219 5.76927 89.1695 5.30421C88.9261 4.83914 88.588 4.47639 88.1553 4.21595C87.7226 3.95552 87.2358 3.8253 86.6949 3.8253C86.1541 3.8253 85.6673 3.95552 85.2346 4.21595C84.8109 4.47639 84.4728 4.83914 84.2204 5.30421C83.977 5.76927 83.8553 6.29945 83.8553 6.89473C83.8553 7.49001 83.977 8.02019 84.2204 8.48525C84.4728 8.95032 84.8109 9.31307 85.2346 9.57351C85.6673 9.83394 86.1541 9.96416 86.6949 9.96416Z" fill="#FFFFFF"/>
<path d="M92.3174 0.183838H92.9935V10.5362H92.3174V0.183838Z" fill="#FFFFFF"/>
<path d="M101.806 7.06215H95.735C95.753 7.62953 95.8928 8.13646 96.1542 8.58292C96.4156 9.02008 96.7672 9.35958 97.2089 9.60141C97.6597 9.84325 98.1645 9.96416 98.7234 9.96416C99.1831 9.96416 99.6068 9.88045 99.9945 9.71303C100.391 9.5363 100.72 9.28052 100.982 8.94567L101.374 9.40608C101.067 9.78744 100.68 10.0804 100.211 10.2851C99.7511 10.4897 99.2507 10.592 98.7099 10.592C98.0067 10.592 97.3802 10.4339 96.8303 10.1176C96.2804 9.80139 95.8477 9.36423 95.5322 8.80615C95.2257 8.24807 95.0724 7.61093 95.0724 6.89473C95.0724 6.18783 95.2167 5.55534 95.5051 4.99726C95.8026 4.42988 96.2083 3.98807 96.7221 3.67183C97.236 3.35558 97.8129 3.19746 98.4529 3.19746C99.093 3.19746 99.6654 3.35558 100.17 3.67183C100.684 3.97877 101.085 4.41128 101.374 4.96936C101.671 5.52744 101.82 6.15993 101.82 6.86683L101.806 7.06215ZM98.4529 3.81135C97.9571 3.81135 97.5109 3.92761 97.1143 4.16015C96.7176 4.38338 96.3976 4.70427 96.1542 5.12283C95.9198 5.53209 95.7846 5.99715 95.7485 6.51803H101.157C101.13 5.99715 100.995 5.53209 100.752 5.12283C100.508 4.71357 100.188 4.39268 99.7916 4.16015C99.395 3.92761 98.9487 3.81135 98.4529 3.81135Z" fill="#FFFFFF"/>
<path d="M110.143 10.592C109.476 10.592 108.872 10.4339 108.331 10.1176C107.799 9.80139 107.38 9.36423 107.073 8.80615C106.767 8.23877 106.614 7.60163 106.614 6.89473C106.614 6.18783 106.767 5.55534 107.073 4.99726C107.38 4.42988 107.799 3.98807 108.331 3.67183C108.872 3.35558 109.476 3.19746 110.143 3.19746C110.81 3.19746 111.409 3.35558 111.941 3.67183C112.482 3.98807 112.906 4.42988 113.212 4.99726C113.519 5.55534 113.672 6.18783 113.672 6.89473C113.672 7.60163 113.519 8.23877 113.212 8.80615C112.906 9.36423 112.482 9.80139 111.941 10.1176C111.409 10.4339 110.81 10.592 110.143 10.592ZM110.143 9.96416C110.684 9.96416 111.166 9.83394 111.59 9.57351C112.022 9.31307 112.361 8.95032 112.604 8.48525C112.856 8.02019 112.983 7.49001 112.983 6.89473C112.983 6.29945 112.856 5.76927 112.604 5.30421C112.361 4.83914 112.022 4.47639 111.59 4.21595C111.166 3.95552 110.684 3.8253 110.143 3.8253C109.602 3.8253 109.115 3.95552 108.683 4.21595C108.259 4.47639 107.921 4.83914 107.668 5.30421C107.425 5.76927 107.303 6.29945 107.303 6.89473C107.303 7.49001 107.425 8.02019 107.668 8.48525C107.921 8.95032 108.259 9.31307 108.683 9.57351C109.115 9.83394 109.602 9.96416 110.143 9.96416Z" fill="#FFFFFF"/>
<path d="M119.218 3.19746C120.101 3.19746 120.8 3.46255 121.314 3.99272C121.828 4.5229 122.084 5.2856 122.084 6.28084V10.5362H121.408V6.33665C121.408 5.51814 121.206 4.89495 120.8 4.46709C120.403 4.03923 119.844 3.8253 119.123 3.8253C118.294 3.8253 117.64 4.08109 117.162 4.59266C116.685 5.10423 116.446 5.79253 116.446 6.65755V10.5362H115.77V3.25327H116.419V4.82984C116.662 4.31827 117.023 3.91831 117.5 3.62997C117.987 3.34163 118.56 3.19746 119.218 3.19746Z" fill="#FFFFFF"/>
<path d="M131.843 10.0758C131.672 10.2432 131.455 10.3734 131.194 10.4664C130.942 10.5501 130.676 10.592 130.396 10.592C129.783 10.592 129.31 10.4199 128.976 10.0758C128.643 9.72233 128.476 9.23401 128.476 8.61082V3.8532H127.178V3.25327H128.476V1.66275H129.152V3.25327H131.397V3.8532H129.152V8.54106C129.152 9.01543 129.26 9.37818 129.477 9.62931C129.702 9.87115 130.031 9.99207 130.464 9.99207C130.906 9.99207 131.271 9.8572 131.559 9.58746L131.843 10.0758Z" fill="#FFFFFF"/>
<path d="M137.177 3.19746C138.06 3.19746 138.759 3.46255 139.273 3.99272C139.786 4.5229 140.043 5.2856 140.043 6.28084V10.5362H139.367V6.33665C139.367 5.51814 139.164 4.89495 138.759 4.46709C138.362 4.03923 137.803 3.8253 137.082 3.8253C136.253 3.8253 135.599 4.08109 135.121 4.59266C134.644 5.10423 134.405 5.79253 134.405 6.65755V10.5362H133.729V0.183838H134.405V4.77403C134.648 4.27176 135.009 3.88576 135.486 3.61602C135.964 3.33698 136.528 3.19746 137.177 3.19746Z" fill="#FFFFFF"/>
<path d="M148.803 7.06215H142.732C142.75 7.62953 142.89 8.13646 143.151 8.58292C143.413 9.02008 143.764 9.35958 144.206 9.60141C144.657 9.84325 145.161 9.96416 145.72 9.96416C146.18 9.96416 146.604 9.88045 146.991 9.71303C147.388 9.5363 147.717 9.28052 147.978 8.94567L148.371 9.40608C148.064 9.78744 147.676 10.0804 147.208 10.2851C146.748 10.4897 146.248 10.592 145.707 10.592C145.004 10.592 144.377 10.4339 143.827 10.1176C143.277 9.80139 142.845 9.36423 142.529 8.80615C142.223 8.24807 142.069 7.61093 142.069 6.89473C142.069 6.18783 142.214 5.55534 142.502 4.99726C142.8 4.42988 143.205 3.98807 143.719 3.67183C144.233 3.35558 144.81 3.19746 145.45 3.19746C146.09 3.19746 146.662 3.35558 147.167 3.67183C147.681 3.97877 148.082 4.41128 148.371 4.96936C148.668 5.52744 148.817 6.15993 148.817 6.86683L148.803 7.06215ZM145.45 3.81135C144.954 3.81135 144.508 3.92761 144.111 4.16015C143.715 4.38338 143.394 4.70427 143.151 5.12283C142.917 5.53209 142.781 5.99715 142.745 6.51803H148.154C148.127 5.99715 147.992 5.53209 147.749 5.12283C147.505 4.71357 147.185 4.39268 146.789 4.16015C146.392 3.92761 145.946 3.81135 145.45 3.81135Z" fill="#FFFFFF"/>
<path d="M54.1702 26.6649H56.9384V33.0049C56.1282 33.6563 55.1829 34.1562 54.1027 34.5046C53.0224 34.8531 51.9121 35.0273 50.7718 35.0273C49.1664 35.0273 47.7185 34.6789 46.4282 33.982C45.1378 33.27 44.1251 32.2929 43.3899 31.0506C42.6547 29.8084 42.2871 28.4071 42.2871 26.8467C42.2871 25.2863 42.6547 23.885 43.3899 22.6428C44.1251 21.4006 45.1378 20.431 46.4282 19.7341C47.7335 19.0221 49.1964 18.6661 50.8168 18.6661C52.1372 18.6661 53.3375 18.8858 54.4177 19.3251C55.498 19.7644 56.4058 20.4083 57.1409 21.2566L55.2955 23.0746C54.0952 21.8626 52.6473 21.2566 50.9518 21.2566C49.8416 21.2566 48.8513 21.4915 47.9811 21.9611C47.1259 22.4307 46.4507 23.0897 45.9556 23.9381C45.4754 24.7864 45.2354 25.756 45.2354 26.8467C45.2354 27.9072 45.4754 28.8616 45.9556 29.7099C46.4507 30.5583 47.1259 31.2248 47.9811 31.7096C48.8513 32.1944 49.8341 32.4368 50.9293 32.4368C52.1597 32.4368 53.2399 32.1641 54.1702 31.6187V26.6649Z" fill="#FFFFFF"/>
<path d="M65.9286 34.9591C64.7133 34.9591 63.618 34.694 62.6427 34.1638C61.6675 33.6336 60.9023 32.8988 60.3471 31.9596C59.807 31.0052 59.5369 29.9296 59.5369 28.7328C59.5369 27.536 59.807 26.468 60.3471 25.5287C60.9023 24.5895 61.6675 23.8547 62.6427 23.3245C63.618 22.7943 64.7133 22.5292 65.9286 22.5292C67.1589 22.5292 68.2617 22.7943 69.2369 23.3245C70.2122 23.8547 70.9699 24.5895 71.51 25.5287C72.0652 26.468 72.3427 27.536 72.3427 28.7328C72.3427 29.9296 72.0652 31.0052 71.51 31.9596C70.9699 32.8988 70.2122 33.6336 69.2369 34.1638C68.2617 34.694 67.1589 34.9591 65.9286 34.9591ZM65.9286 32.5277C66.9639 32.5277 67.8191 32.1792 68.4943 31.4824C69.1694 30.7855 69.507 29.869 69.507 28.7328C69.507 27.5966 69.1694 26.6801 68.4943 25.9832C67.8191 25.2863 66.9639 24.9379 65.9286 24.9379C64.8933 24.9379 64.0381 25.2863 63.3629 25.9832C62.7028 26.6801 62.3727 27.5966 62.3727 28.7328C62.3727 29.869 62.7028 30.7855 63.3629 31.4824C64.0381 32.1792 64.8933 32.5277 65.9286 32.5277Z" fill="#FFFFFF"/>
<path d="M80.4343 34.9591C79.219 34.9591 78.1237 34.694 77.1484 34.1638C76.1732 33.6336 75.408 32.8988 74.8528 31.9596C74.3127 31.0052 74.0426 29.9296 74.0426 28.7328C74.0426 27.536 74.3127 26.468 74.8528 25.5287C75.408 24.5895 76.1732 23.8547 77.1484 23.3245C78.1237 22.7943 79.219 22.5292 80.4343 22.5292C81.6646 22.5292 82.7674 22.7943 83.7426 23.3245C84.7179 23.8547 85.4756 24.5895 86.0157 25.5287C86.5709 26.468 86.8484 27.536 86.8484 28.7328C86.8484 29.9296 86.5709 31.0052 86.0157 31.9596C85.4756 32.8988 84.7179 33.6336 83.7426 34.1638C82.7674 34.694 81.6646 34.9591 80.4343 34.9591ZM80.4343 32.5277C81.4696 32.5277 82.3248 32.1792 82.9999 31.4824C83.6751 30.7855 84.0127 29.869 84.0127 28.7328C84.0127 27.5966 83.6751 26.6801 82.9999 25.9832C82.3248 25.2863 81.4696 24.9379 80.4343 24.9379C79.399 24.9379 78.5438 25.2863 77.8686 25.9832C77.2085 26.6801 76.8784 27.5966 76.8784 28.7328C76.8784 29.869 77.2085 30.7855 77.8686 31.4824C78.5438 32.1792 79.399 32.5277 80.4343 32.5277Z" fill="#FFFFFF"/>
<path d="M101.467 22.6655V32.9594C101.467 37.2315 99.3061 39.3675 94.985 39.3675C93.8297 39.3675 92.7344 39.216 91.6991 38.9131C90.6639 38.6252 89.8087 38.201 89.1335 37.6405L90.3938 35.5045C90.9189 35.9438 91.5791 36.2922 92.3743 36.5498C93.1845 36.8225 94.0022 36.9588 94.8275 36.9588C96.1478 36.9588 97.1155 36.6558 97.7307 36.0499C98.3459 35.4439 98.6534 34.5198 98.6534 33.2776V32.6413C98.1733 33.1715 97.5882 33.573 96.898 33.8456C96.2078 34.1183 95.4501 34.2547 94.6249 34.2547C93.4846 34.2547 92.4493 34.0123 91.5191 33.5275C90.6039 33.0276 89.8762 32.3307 89.336 31.4369C88.8109 30.5431 88.5483 29.5205 88.5483 28.3692C88.5483 27.2179 88.8109 26.2029 89.336 25.3242C89.8762 24.4304 90.6039 23.7411 91.5191 23.2563C92.4493 22.7716 93.4846 22.5292 94.6249 22.5292C95.4951 22.5292 96.2828 22.6731 96.988 22.9609C97.7082 23.2488 98.3084 23.6881 98.7885 24.2789V22.6655H101.467ZM95.0525 31.8459C96.1178 31.8459 96.988 31.5278 97.6632 30.8915C98.3534 30.2401 98.6985 29.3994 98.6985 28.3692C98.6985 27.3542 98.3534 26.5286 97.6632 25.8923C96.988 25.256 96.1178 24.9379 95.0525 24.9379C93.9722 24.9379 93.087 25.256 92.3968 25.8923C91.7217 26.5286 91.3841 27.3542 91.3841 28.3692C91.3841 29.3994 91.7217 30.2401 92.3968 30.8915C93.087 31.5278 93.9722 31.8459 95.0525 31.8459Z" fill="#FFFFFF"/>
<path d="M105.165 17.939H107.978V34.8H105.165V17.939Z" fill="#FFFFFF"/>
<path d="M122.969 28.801C122.969 28.9979 122.954 29.2782 122.924 29.6417H113.494C113.659 30.5355 114.086 31.2476 114.777 31.7778C115.482 32.2928 116.352 32.5504 117.387 32.5504C118.708 32.5504 119.795 32.1111 120.651 31.2324L122.158 32.9821C121.618 33.6336 120.936 34.1259 120.11 34.4592C119.285 34.7925 118.355 34.9591 117.32 34.9591C115.999 34.9591 114.837 34.694 113.831 34.1638C112.826 33.6336 112.046 32.8988 111.491 31.9596C110.951 31.0052 110.681 29.9296 110.681 28.7328C110.681 27.5511 110.943 26.4907 111.468 25.5514C112.008 24.597 112.751 23.8547 113.696 23.3245C114.642 22.7943 115.707 22.5292 116.892 22.5292C118.062 22.5292 119.105 22.7943 120.02 23.3245C120.951 23.8396 121.671 24.5743 122.181 25.5287C122.706 26.468 122.969 27.5587 122.969 28.801ZM116.892 24.8016C115.992 24.8016 115.227 25.0742 114.597 25.6196C113.981 26.1498 113.606 26.8619 113.471 27.7557H120.29C120.17 26.877 119.803 26.165 119.188 25.6196C118.573 25.0742 117.807 24.8016 116.892 24.8016Z" fill="#FFFFFF"/>
<path d="M138.643 18.8934C140.008 18.8934 141.193 19.1206 142.198 19.5751C143.219 20.0296 143.999 20.681 144.539 21.5293C145.079 22.3777 145.349 23.3851 145.349 24.5516C145.349 25.7029 145.079 26.7104 144.539 27.5739C143.999 28.4222 143.219 29.0736 142.198 29.5281C141.193 29.9826 140.008 30.2098 138.643 30.2098H135.087V34.8H132.161V18.8934H138.643ZM138.508 27.7102C139.783 27.7102 140.751 27.4375 141.411 26.8922C142.071 26.3468 142.401 25.5666 142.401 24.5516C142.401 23.5366 142.071 22.7564 141.411 22.211C140.751 21.6657 139.783 21.393 138.508 21.393H135.087V27.7102H138.508Z" fill="#FFFFFF"/>
<path d="M148.221 17.939H151.034V34.8H148.221V17.939Z" fill="#FFFFFF"/>
<path d="M159.318 22.5292C161.088 22.5292 162.438 22.9609 163.369 23.8244C164.314 24.6728 164.786 25.9605 164.786 27.6875V34.8H162.131V33.323C161.786 33.8532 161.291 34.2622 160.645 34.5501C160.015 34.8228 159.25 34.9591 158.35 34.9591C157.45 34.9591 156.662 34.8076 155.987 34.5046C155.311 34.1865 154.786 33.7547 154.411 33.2094C154.051 32.6489 153.871 32.0202 153.871 31.3233C153.871 30.2326 154.269 29.3615 155.064 28.7101C155.874 28.0435 157.142 27.7102 158.867 27.7102H161.973V27.5284C161.973 26.6801 161.718 26.0286 161.208 25.5742C160.713 25.1197 159.97 24.8925 158.98 24.8925C158.305 24.8925 157.637 24.9985 156.977 25.2106C156.332 25.4227 155.784 25.7181 155.334 26.0968L154.231 24.029C154.861 23.5442 155.619 23.173 156.504 22.9155C157.39 22.6579 158.327 22.5292 159.318 22.5292ZM158.935 32.8912C159.64 32.8912 160.263 32.7322 160.803 32.414C161.358 32.0808 161.748 31.6111 161.973 31.0052V29.5963H159.07C157.45 29.5963 156.639 30.1341 156.639 31.2097C156.639 31.7248 156.842 32.1338 157.247 32.4368C157.652 32.7398 158.215 32.8912 158.935 32.8912Z" fill="#FFFFFF"/>
<path d="M179.43 22.6655L173.804 35.7772C173.278 37.0952 172.641 38.0193 171.891 38.5495C171.14 39.0949 170.233 39.3675 169.167 39.3675C168.567 39.3675 167.975 39.2691 167.389 39.0721C166.804 38.8752 166.324 38.6025 165.949 38.2541L167.074 36.1635C167.344 36.421 167.659 36.6255 168.02 36.777C168.395 36.9285 168.77 37.0043 169.145 37.0043C169.64 37.0043 170.045 36.8755 170.36 36.618C170.69 36.3604 170.99 35.9287 171.26 35.3227L171.463 34.8455L166.219 22.6655H169.145L172.926 31.6414L176.729 22.6655H179.43Z" fill="#FFFFFF"/>
<path d="M33.2749 18.4954L26.3657 14.4116L20.6758 20.1287L25.9592 25.0293L33.2749 20.5373C33.6813 20.1289 34.0876 19.7206 34.0876 19.3122C34.0876 19.3122 33.6813 18.9037 33.2749 18.4954Z" fill="#FFFFFF"/>
<path d="M25.1466 13.7164L17.5372 9.74254L1.11719 1L19.9401 18.8824L25.1466 13.7164Z" fill="#FFFFFF"/>
<path d="M1.11719 38.9999L17.8156 29.8601L25.1466 25.8862L20.2592 21.1176L1.11719 38.9999Z" fill="#FFFFFF"/>
<path d="M0 1.55872V38.4411L19 20.2025L0 1.55872Z" fill="#FFFFFF"/>
</svg>
