<svg width="160" height="24" viewBox="0 0 160 24" fill="none" xmlns="http://www.w3.org/2000/svg">
<path d="M62.7552 17.0182C61.9391 16.2763 60.2203 14.7924 59.4629 14.1432L59.8339 15.7198L61.3641 18.2239L63.0335 20.0787L65.5839 21.8408L69.1081 22.7682L71.7048 22.861L75.0435 21.8408L77.3621 20.4497L79.4488 18.4094L80.8863 16.0444L81.4427 14.1432C81.6437 13.4168 82.0068 11.8651 81.721 11.2219C81.1645 9.96984 79.8661 8.81057 79.6343 8.71783C79.4024 8.62508 79.2169 8.81057 78.7996 9.45976C78.3822 10.109 76.2028 14.6533 74.5335 14.6533C72.6786 14.6533 71.7512 10.0162 70.3137 10.0162C69.0617 10.0162 67.5314 12.7057 66.8822 14.7924C66.2331 16.8791 65.723 18.1775 65.1201 18.1775C64.5173 18.1775 63.7754 17.9456 62.7552 17.0182Z" fill="url(#paint0_linear)" fill-opacity="0.9"/>
<path fill-rule="evenodd" clip-rule="evenodd" d="M70.5 22.6754C76.672 22.6754 81.6754 17.672 81.6754 11.5C81.6754 5.328 76.672 0.324597 70.5 0.324597C64.328 0.324597 59.3246 5.328 59.3246 11.5C59.3246 17.672 64.328 22.6754 70.5 22.6754ZM70.5 23C76.8513 23 82 17.8513 82 11.5C82 5.14873 76.8513 0 70.5 0C64.1487 0 59 5.14873 59 11.5C59 17.8513 64.1487 23 70.5 23Z" fill="#1CCDD3"/>
<g style="mix-blend-mode:lighten">
<path d="M62.7089 16.2297C61.8278 17.6672 61.1786 17.6672 60.9004 17.2499V17.5281L62.1988 19.1511L64.5637 21.2378L68.1343 22.6289L71.1947 22.8607L75.2754 21.8406L78.104 19.9394L80.3762 17.1571L81.3036 14.9313L81.721 13.1228C81.7519 12.3809 81.9064 11.9172 81.721 11.4535C81.2109 12.1954 78.9387 16.137 78.0113 16.137C77.3621 16.137 75.971 12.8446 74.6262 12.8446C74.0376 12.8446 73.3994 14.3868 72.8177 15.9051C72.2538 17.377 71.7561 18.8265 70.5919 18.8265C68.1343 18.8265 67.1141 13.8184 65.1201 13.8184C64.471 13.8184 63.8332 14.3952 62.7089 16.2297Z" fill="url(#paint1_linear)" fill-opacity="0.85"/>
</g>
<path d="M0 0.381349H7.39026C9.05682 0.381349 10.3272 0.523719 11.2015 0.80846C12.3763 1.19489 13.3826 1.88132 14.2204 2.86774C15.0583 3.85417 15.6958 5.06431 16.1329 6.49819C16.57 7.92189 16.7886 9.68118 16.7886 11.7761C16.7886 13.6167 16.5837 15.2031 16.1739 16.5353C15.673 18.1624 14.9581 19.4793 14.0292 20.4861C13.328 21.2488 12.3808 21.8437 11.1878 22.2708C10.2954 22.586 9.10236 22.7436 7.60882 22.7436H0V0.381349ZM4.04347 4.16433V18.9759H7.06241C8.19166 18.9759 9.00673 18.9047 9.50761 18.7624C10.1633 18.5793 10.7052 18.2692 11.1332 17.8319C11.5703 17.3946 11.9255 16.6777 12.1987 15.6811C12.4719 14.6743 12.6085 13.3065 12.6085 11.5778C12.6085 9.84897 12.4719 8.52188 12.1987 7.59647C11.9255 6.67106 11.543 5.94904 11.0512 5.43041C10.5595 4.91177 9.93564 4.56093 9.17976 4.37789C8.61514 4.23552 7.50865 4.16433 5.8603 4.16433H4.04347Z" fill="#EAEAEA"/>
<path d="M20.231 22.7436V0.381349H35.0798V4.16433H24.2745V9.12187H34.3285V12.8896H24.2745V18.9759H35.4623V22.7436H20.231Z" fill="#EAEAEA"/>
<path d="M51.5679 15.625H55.625C55.0239 18.0656 54.0222 20.1657 52.6197 21.3555C51.2264 22.5352 49.4551 23.125 47.3058 23.125C44.6466 23.125 42.461 22.1132 40.7489 20.0895C39.0368 18.0556 38.1807 15.2794 38.1807 11.7608C38.1807 8.03884 39.0413 5.15075 40.7625 3.09655C42.4837 1.03218 44.7468 0 47.5517 0C50.0015 0 51.9913 0.80846 53.5213 2.42538C54.432 3.38129 55.3125 5.3125 55.5704 7.5H51.5679C51.3311 6.3407 50.8348 5.53719 50.0789 4.86601C49.3321 4.19484 48.4214 3.85925 47.3468 3.85925C45.8624 3.85925 44.6557 4.45416 43.7268 5.64396C42.807 6.83377 42.3471 8.76086 42.3471 11.4252C42.3471 14.2523 42.8025 16.2658 43.7132 17.4658C44.6239 18.6658 45.8078 19.2657 47.2649 19.2657C48.3395 19.2657 49.2638 18.8844 50.0379 18.1217C50.812 17.359 51.1134 16.5625 51.5679 15.625Z" fill="#EAEAEA"/>
<path d="M91.0079 22.5L83.75 0.625H88.1962L93.3349 16.8149L98.3074 0.625H102.657L95.3849 22.5H91.0079Z" fill="#EAEAEA"/>
<path d="M104.748 22.5V0.625H119.804V4.32555H108.848V9.17505H119.042V12.8607H108.848V18.8144H120.192V22.5H104.748Z" fill="#EAEAEA"/>
<path d="M123.683 22.5V0.625H132.312C134.482 0.625 136.056 0.823954 137.035 1.22186C138.023 1.60982 138.813 2.30616 139.403 3.31088C139.994 4.3156 140.29 5.46456 140.29 6.75776C140.29 8.39913 139.842 9.75699 138.946 10.8313C138.051 11.8957 136.712 12.5672 134.93 12.8458C135.816 13.4028 136.546 14.0146 137.118 14.6811C137.7 15.3476 138.48 16.5314 139.459 18.2324L141.938 22.5H137.035L134.071 17.74C133.018 16.039 132.298 14.9696 131.91 14.5319C131.522 14.0842 131.111 13.7808 130.677 13.6217C130.243 13.4526 129.555 13.368 128.614 13.368H127.782V22.5H123.683ZM127.782 9.87636H130.816C132.783 9.87636 134.011 9.78684 134.5 9.60778C134.99 9.42872 135.373 9.12034 135.65 8.68264C135.927 8.24494 136.065 7.69782 136.065 7.04127C136.065 6.30514 135.881 5.71325 135.511 5.2656C135.151 4.80801 134.639 4.51953 133.974 4.40015C133.641 4.35042 132.644 4.32555 130.982 4.32555H127.782V9.87636Z" fill="#EAEAEA"/>
<path d="M148.448 22.5V13.2934L141.01 0.625H145.817L150.595 9.2795L155.277 0.625H160L152.534 13.3232V22.5H148.448Z" fill="#EAEAEA"/>
<defs>
<linearGradient id="paint0_linear" x1="70.5224" y1="22.9185" x2="70.5224" y2="10.5381" gradientUnits="userSpaceOnUse">
<stop stop-color="#00446C" stop-opacity="0.41"/>
<stop offset="1" stop-color="#07C7CA" stop-opacity="0.85"/>
</linearGradient>
<linearGradient id="paint1_linear" x1="71.2411" y1="22.9071" x2="71.2411" y2="14.0966" gradientUnits="userSpaceOnUse">
<stop stop-color="#0887D2"/>
<stop offset="1" stop-color="#37F7ED"/>
</linearGradient>
</defs>
</svg>
